M48
T01C.3000
T02C.8000
T03C.8500
T04C.9000
T05C2.0500
T06C2.3500
%
M71
G93X0Y0
T01
X039264Y006713
Y007584
X039232Y008591
X042924Y006784
X0503Y0065
X050293Y008303
X029065Y008163
X024454Y00925
X024241Y007213
X023312
X019347Y010311
X018786Y010988
X020402Y011866
X020857Y013138
X015427Y013666
X016405Y015163
X012674Y014163
X012749Y013138
X013013Y0122
X014362Y011249
X014387Y010313
X014386Y009488
X012237Y016788
X011447
X010137
X009737Y014563
X008812Y014357
X007962Y015238
Y015888
X007722Y017209
X00692Y017196
X007751Y01801
X006984Y020213
X007295Y022363
X00673Y024506
X011447Y023373
X014069Y023459
X015562Y022638
X016121Y022198
X016587Y021438
X017537Y021238
X018371Y023876
X017962Y024888
X020504Y026137
X021368Y025679
X021537Y023213
X022262Y023538
X023387Y021813
X024663Y021787
X025693Y020413
Y019738
X025487Y018763
X022407Y017788
X029287Y016288
X029837Y015738
X023712Y027863
X022137Y028524
X019114Y028536
X022487Y031714
X024062Y031638
X013837Y026021
X01298
X012712Y021313
X013212Y020863
X011476Y019501
X010162Y020538
X007087Y014592
X007643Y029886
Y030581
X008356
Y029886
X004337Y031013
X003512Y031038
X002487Y029638
X001487Y030363
X001012Y030813
X000987Y033563
X001898Y03348
X003287
X004037Y028563
X003629Y035557
X005118Y035538
X001898Y035557
X008373Y036363
Y037063
X009187Y036045
X010055Y036027
X014181Y037864
X018Y038138
Y038964
X018852
Y038138
X019703
Y038964
X020555
Y038125
X021444
X021343Y039167
X022003Y039649
X022613Y040208
X023255Y040781
X023425Y039726
X024111Y040183
X025862Y040688
Y041687
X025659Y037495
X025711Y036728
X025Y036449
X024973Y037216
X024238Y036982
X024264Y036195
X023527Y035966
X023806Y035179
X024543Y035433
X025229Y035687
X02594Y035941
X026651Y036246
X026448Y037008
X026421Y037774
X022816Y039192
X022155Y038633
X022689Y035687
X022968Y034874
X02213Y034595
X021876Y035382
X023762Y046913
X024487
X023116Y047741
X023062Y048488
X028512Y048538
X028487Y047741
X028662Y051163
X028937Y053413
X029662Y053093
X029462Y053938
X026723Y054063
X025711
X024658
Y055163
X025711
X026712Y055185
X02884Y058313
X030487
X024437Y059038
X023637
X022587Y058275
X021883
X022137Y057513
X022962
X012637Y055313
X012462Y054388
Y053538
X011062Y052338
X013694Y050609
X014394
X015094
X015805
Y049796
X015094Y049784
X014369Y049809
X013669
X016119Y046241
X016577Y046698
X008622Y046909
Y046189
X008387Y047738
X008005Y050663
X008356Y042622
X009066Y042863
Y042254
X006984Y040659
X030512Y050436
X031987Y051663
X039264Y061713
Y062584
X039232Y063591
X042924Y061784
X0503Y0615
X050293Y063303
X029065Y063163
X024454Y06425
X024241Y062213
X023312
X019347Y065311
X018786Y065988
X020402Y066866
X020857Y068138
X015427Y068666
X016405Y070163
X012674Y069163
X012749Y068138
X013013Y0672
X014362Y06625
X014387Y065313
X014386Y064488
X012237Y071788
X011447
X010137
X009737Y069563
X008812Y069357
X007962Y070238
Y070888
X007722Y072209
X00692Y072196
X007751Y07301
X006984Y075213
X007295Y077363
X00673Y079506
X011447Y078373
X014069Y078459
X015562Y077638
X016121Y077198
X016587Y076438
X017537Y076238
X018371Y078876
X017962Y079888
X020504Y081137
X021368Y08068
X021537Y078213
X022262Y078538
X023387Y076813
X024663Y076788
X025693Y075413
Y074738
X025487Y073763
X022407Y072788
X029287Y071288
X029837Y070738
X023712Y082863
X022137Y083524
X019114Y083536
X022487Y086715
X024062Y086638
X013837Y081021
X01298
X012712Y076313
X013212Y075863
X011476Y074501
X010162Y075538
X007087Y069592
X007643Y084886
Y085581
X008356
Y084886
X004337Y086013
X003512Y086038
X002487Y084638
X001487Y085363
X001012Y085813
X000987Y088563
X001898Y08848
X003287
X004037Y083563
X003629Y090557
X005118Y090539
X001898Y090557
X008373Y091363
Y092063
X009187Y091045
X010055Y091027
X014181Y092864
X018Y093138
Y093964
X018852
Y093138
X019703
Y093964
X020555
Y093126
X021444
X021343Y094167
X022003Y09465
X022613Y095208
X023255Y095781
X023425Y094726
X024111Y095183
X025862Y095688
Y096687
X025659Y092495
X025711Y091729
X025Y091449
X024973Y092216
X024238Y091983
X024264Y091195
X023527Y090967
X023806Y090179
X024543Y090433
X025229Y090687
X02594Y090941
X026651Y091246
X026448Y092008
X026421Y092775
X022816Y094192
X022155Y093634
X022689Y090687
X022968Y089874
X02213Y089595
X021876Y090382
X023762Y101913
X024487
X023116Y102741
X023062Y103488
X028512Y103538
X028487Y102741
X028662Y106163
X028937Y108413
X029662Y108093
X029462Y108938
X026723Y109063
X025711
X024658
Y110163
X025711
X026712Y110185
X02884Y113313
X030487
X024437Y114038
X023637
X022587Y113275
X021883
X022137Y112513
X022962
X012637Y110313
X012462Y109388
Y108538
X011062Y107338
X013694Y105609
X014394
X015094
X015805
Y104796
X015094Y104784
X014369Y104809
X013669
X016119Y101241
X016577Y101699
X008622Y101909
Y101189
X008387Y102738
X008005Y105663
X008356Y097622
X009066Y097863
Y097254
X006984Y095659
X030512Y105436
X031987Y106663
X092235Y061713
Y062584
X092203Y063591
X095895Y061784
X103271Y0615
X103264Y063303
X082036Y063163
X077425Y06425
X077212Y062213
X076283
X072318Y065311
X071757Y065988
X073373Y066866
X073828Y068138
X068398Y068666
X069376Y070163
X065645Y069163
X06572Y068138
X065984Y0672
X067333Y06625
X067358Y065313
X067357Y064488
X065208Y071788
X064418
X063108
X062708Y069563
X061783Y069357
X060933Y070238
Y070888
X060693Y072209
X059891Y072196
X060722Y07301
X059955Y075213
X060266Y077363
X059701Y079506
X064418Y078373
X06704Y078459
X068533Y077638
X069092Y077198
X069558Y076438
X070508Y076238
X071342Y078876
X070933Y079888
X073475Y081137
X074339Y08068
X074508Y078213
X075233Y078538
X076358Y076813
X077634Y076788
X078664Y075413
Y074738
X078458Y073763
X075378Y072788
X082258Y071288
X082808Y070738
X076683Y082863
X075108Y083524
X072085Y083536
X075458Y086715
X077033Y086638
X066808Y081021
X065951
X065683Y076313
X066183Y075863
X064447Y074501
X063133Y075538
X060058Y069592
X060614Y084886
Y085581
X061327
Y084886
X057308Y086013
X056483Y086038
X055458Y084638
X054458Y085363
X053983Y085813
X053958Y088563
X054869Y08848
X056258
X057008Y083563
X0566Y090557
X058089Y090539
X054869Y090557
X061344Y091363
Y092063
X062158Y091045
X063026Y091027
X067152Y092864
X070971Y093138
Y093964
X071823
Y093138
X072674
Y093964
X073526
Y093126
X074415
X074314Y094167
X074974Y09465
X075584Y095208
X076226Y095781
X076396Y094726
X077082Y095183
X078833Y095688
Y096687
X07863Y092495
X078682Y091729
X077971Y091449
X077944Y092216
X077209Y091983
X077235Y091195
X076498Y090967
X076777Y090179
X077514Y090433
X0782Y090687
X078911Y090941
X079622Y091246
X079419Y092008
X079392Y092775
X075787Y094192
X075126Y093634
X07566Y090687
X075939Y089874
X075101Y089595
X074847Y090382
X076733Y101913
X077458
X076086Y102741
X076033Y103488
X081483Y103538
X081458Y102741
X081633Y106163
X081908Y108413
X082633Y108093
X082433Y108938
X079694Y109063
X078682
X077629
Y110163
X078682
X079683Y110185
X081811Y113313
X083458
X077408Y114038
X076608
X075558Y113275
X074854
X075108Y112513
X075933
X065608Y110313
X065433Y109388
Y108538
X064033Y107338
X066665Y105609
X067365
X068065
X068776
Y104796
X068065Y104784
X06734Y104809
X06664
X06909Y101241
X069548Y101699
X061593Y101909
Y101189
X061358Y102738
X060976Y105663
X061327Y097622
X062037Y097863
Y097254
X059955Y095659
X083483Y105436
X084958Y106663
X092235Y006713
Y007584
X092203Y008591
X095895Y006784
X103271Y0065
X103264Y008303
X082036Y008163
X077425Y00925
X077212Y007213
X076283
X072318Y010311
X071757Y010988
X073373Y011866
X073828Y013138
X068398Y013666
X069376Y015163
X065645Y014163
X06572Y013138
X065984Y0122
X067333Y011249
X067358Y010313
X067357Y009488
X065208Y016788
X064418
X063108
X062708Y014563
X061783Y014357
X060933Y015238
Y015888
X060693Y017209
X059891Y017196
X060722Y01801
X059955Y020213
X060266Y022363
X059701Y024506
X064418Y023373
X06704Y023459
X068533Y022638
X069092Y022198
X069558Y021438
X070508Y021238
X071342Y023876
X070933Y024888
X073475Y026137
X074339Y025679
X074508Y023213
X075233Y023538
X076358Y021813
X077634Y021787
X078664Y020413
Y019738
X078458Y018763
X075378Y017788
X082258Y016288
X082808Y015738
X076683Y027863
X075108Y028524
X072085Y028536
X075458Y031714
X077033Y031638
X066808Y026021
X065951
X065683Y021313
X066183Y020863
X064447Y019501
X063133Y020538
X060058Y014592
X060614Y029886
Y030581
X061327
Y029886
X057308Y031013
X056483Y031038
X055458Y029638
X054458Y030363
X053983Y030813
X053958Y033563
X054869Y03348
X056258
X057008Y028563
X0566Y035557
X058089Y035538
X054869Y035557
X061344Y036363
Y037063
X062158Y036045
X063026Y036027
X067152Y037864
X070971Y038138
Y038964
X071823
Y038138
X072674
Y038964
X073526
Y038125
X074415
X074314Y039167
X074974Y039649
X075584Y040208
X076226Y040781
X076396Y039726
X077082Y040183
X078833Y040688
Y041687
X07863Y037495
X078682Y036728
X077971Y036449
X077944Y037216
X077209Y036982
X077235Y036195
X076498Y035966
X076777Y035179
X077514Y035433
X0782Y035687
X078911Y035941
X079622Y036246
X079419Y037008
X079392Y037774
X075787Y039192
X075126Y038633
X07566Y035687
X075939Y034874
X075101Y034595
X074847Y035382
X076733Y046913
X077458
X076086Y047741
X076033Y048488
X081483Y048538
X081458Y047741
X081633Y051163
X081908Y053413
X082633Y053093
X082433Y053938
X079694Y054063
X078682
X077629
Y055163
X078682
X079683Y055185
X081811Y058313
X083458
X077408Y059038
X076608
X075558Y058275
X074854
X075108Y057513
X075933
X065608Y055313
X065433Y054388
Y053538
X064033Y052338
X066665Y050609
X067365
X068065
X068776
Y049796
X068065Y049784
X06734Y049809
X06664
X06909Y046241
X069548Y046698
X061593Y046909
Y046189
X061358Y047738
X060976Y050663
X061327Y042622
X062037Y042863
Y042254
X059955Y040659
X083483Y050436
X084958Y051663
T02
X004882Y038897
X045345Y005314
X004882Y093897
X045345Y060314
X057853Y093897
X098316Y060314
X057853Y038897
X098316Y005314
X013178Y060016
X037248Y05961
X06605Y059998
X090184Y059632
T03
X009537Y050363
Y105363
X062508
Y050363
T04
X014612Y006363
X016612
X018612
X014612Y061363
X016612
X018612
X067583
X069583
X071583
X067583Y006363
X069583
X071583
T05
X005Y0025
X100942
Y1175
X01
T06
X03297Y0565
Y0085
Y1115
Y0635
X085941Y1115
Y0635
Y0565
Y0085
M30
