*
%FSLAX26Y26*%
%MOIN*%
%ADD10R,0.051970X0.051970*%
%ADD11R,0.031500X0.031500*%
%ADD12R,0.129920X0.129920*%
%ADD13R,0.039370X0.039370*%
%ADD14C,0.001000*%
%ADD15C,0.002000*%
%ADD16C,0.008000*%
%ADD17C,0.016000*%
%ADD18C,0.004000*%
%ADD19C,0.078740*%
%ADD20R,0.020000X0.020000*%
%ADD21R,0.019290X0.019290*%
%ADD22R,0.005100X0.005100*%
%ADD23C,0.005530*%
%ADD24C,0.019680*%
%ADD25C,0.023620*%
%ADD26R,0.047540X0.047540*%
%ADD27R,0.015750X0.015750*%
%ADD28R,0.043310X0.043310*%
%ADD29R,0.044880X0.044880*%
%ADD30R,0.019680X0.019680*%
%ADD31C,0.027560*%
%ADD32C,0.039370*%
%ADD33C,0.059060*%
%ADD34C,0.022600*%
%ADD35R,0.094490X0.094490*%
%ADD36R,0.059840X0.059840*%
%ADD37R,0.062990X0.062990*%
%IPPOS*%
%LN4810009-2820242.gtp*%
%LPD*%
G75*
G36*
X1027550Y550700D02*
X1023620Y546760D01*
X983950D01*
X980010Y550700D01*
Y609790D01*
X983950Y613730D01*
X1023620D01*
X1027550Y609790D01*
Y595570D01*
X1023620Y591630D01*
X1015320D01*
X1011390Y587690D01*
Y572800D01*
X1015320Y568860D01*
X1023620D01*
X1027550Y564920D01*
Y550700D01*
G37*
G36*
X1096450D02*
Y564920D01*
X1100390Y568860D01*
X1108680D01*
X1112610Y572800D01*
Y587690D01*
X1108680Y591630D01*
X1100390D01*
X1096450Y595570D01*
Y609790D01*
X1100390Y613730D01*
X1140050D01*
X1143990Y609790D01*
Y550700D01*
X1140050Y546760D01*
X1100390D01*
X1096450Y550700D01*
G37*
G54D10*
X406580Y814300D03*
X480200D03*
X553820D03*
Y740680D03*
X480200D03*
X406580D03*
Y667060D03*
X480200D03*
X553820D03*
G54D11*
X327640Y1306150D02*
Y1312450D01*
Y1243160D02*
Y1249460D01*
X327740Y1496980D02*
Y1503280D01*
Y1559970D02*
Y1566270D01*
G36*
X1220870Y2051710D02*
X1196740Y2071960D01*
X1221030Y2100910D01*
X1245160Y2080660D01*
X1220870Y2051710D01*
G37*
G36*
X1180380Y2003450D02*
X1156250Y2023700D01*
X1180540Y2052650D01*
X1204670Y2032400D01*
X1180380Y2003450D01*
G37*
G54D12*
X790950Y2069850D02*
Y2262770D01*
X605910Y2069850D02*
Y2262770D01*
G54D13*
X2021520Y326330D02*
X2045140D01*
X1911280D02*
X1934900D01*
X1911280Y255470D02*
X1934900D01*
X2021520D02*
X2045140D01*
G54D14*
X853450Y1415410D02*
X938809Y1438281D01*
X958930Y1363190D01*
X873571Y1340319D01*
X853450Y1415410D01*
G54D15*
X856642Y1415763D02*
X944341D01*
X868039Y1362837D02*
X955738D01*
G54D16*
X883222Y1419763D02*
X940148D01*
X911456Y1427329D02*
X938121D01*
G54D15*
X854063Y1415056D02*
X938456Y1437669D01*
X944395Y1415505D01*
G54D16*
X857737Y1412935D02*
X936335Y1433995D01*
X941497Y1414728D01*
G54D17*
X873158Y1370837D02*
X949116D01*
X869860Y1383145D02*
X945818D01*
X866562Y1395455D02*
X942520D01*
X863264Y1407763D02*
X939222D01*
G54D15*
X867985Y1363095D02*
X854063Y1415056D01*
X944395Y1415505D02*
X958317Y1363544D01*
G54D17*
X874747Y1364907D02*
X862636Y1410107D01*
X937633Y1413693D02*
X949744Y1368493D01*
G54D16*
X874259Y1351271D02*
X900925D01*
X872232Y1358837D02*
X929159D01*
G54D15*
X873924Y1340931D02*
X867985Y1363095D01*
X958317Y1363544D02*
X873924Y1340931D01*
G54D16*
X876046Y1344605D02*
X870883Y1363872D01*
X954643Y1365665D02*
X876046Y1344605D01*
G54D18*
X937749Y1436444D02*
X942754Y1417763D01*
X868030D02*
X937749Y1436444D01*
X874631Y1342156D02*
X869626Y1360837D01*
X944350D02*
X874631Y1342156D01*
G54D19*
X863030Y1377730D03*
X949350Y1400870D03*
X713365Y1512380D02*
X733055D01*
G54D20*
X1594390Y255910D02*
X1599190D01*
X1637700D02*
X1642500D01*
X1594160Y295510D02*
X1598960D01*
X1637470D02*
X1642270D01*
X1594000Y338900D02*
X1598800D01*
X1637310D02*
X1642110D01*
X256920Y1238360D02*
X261720D01*
X213610D02*
X218410D01*
X507970Y981250D02*
X512770D01*
X551280D02*
X556080D01*
X489220Y340090D02*
X494020D01*
X532530D02*
X537330D01*
X489220Y373550D02*
X494020D01*
X532530D02*
X537330D01*
X532530Y407020D02*
X537330D01*
X489220D02*
X494020D01*
X804270Y339130D02*
X809070D01*
X847580D02*
X852380D01*
X848470Y306620D02*
X853270D01*
X805160D02*
X809960D01*
X805160Y271310D02*
X809960D01*
X848470D02*
X853270D01*
X758900Y871580D02*
X763700D01*
X802210D02*
X807010D01*
X400640Y1138160D02*
X405440D01*
X357330D02*
X362130D01*
X227800Y1494640D02*
X232600D01*
X271110D02*
X275910D01*
X1001860Y1677100D02*
X1006660D01*
X958550D02*
X963350D01*
X585670Y1549930D02*
X590470D01*
X542370D02*
X547170D01*
X270150Y1962130D02*
X274950D01*
X313460D02*
X318260D01*
X370620Y1785950D02*
X375420D01*
X327310D02*
X332110D01*
X484300Y1916310D02*
X489100D01*
X440990D02*
X445790D01*
X990200Y2323350D02*
X995000D01*
X1033510D02*
X1038310D01*
X1117170Y1970010D02*
X1121970D01*
X1073860D02*
X1078660D01*
X183800Y1088120D02*
X188600D01*
X140490D02*
X145290D01*
G54D14*
X772798Y991144D02*
X840122Y1030014D01*
X849462Y1013836D01*
X782138Y974966D01*
X772798Y991144D01*
G54D15*
X774084Y991327D02*
X809506D01*
X812754Y1013653D02*
X848176D01*
G54D16*
X781654Y982805D02*
X788715D01*
X779043Y987327D02*
X796546D01*
G54D15*
X782321Y975649D02*
X773481Y990961D01*
X810975Y992193D02*
X782321Y975649D01*
G54D16*
X783419Y979747D02*
X777579Y989863D01*
X809475Y994791D02*
X783419Y979747D01*
X787043Y995327D02*
X810403D01*
X799450Y1002490D02*
X822810D01*
X811857Y1009653D02*
X835217D01*
G54D15*
X773481Y990961D02*
X811285Y1012787D01*
X848779Y1014019D02*
X810975Y992193D01*
G54D16*
X777579Y989863D02*
X812785Y1010189D01*
X844681Y1015117D02*
X809475Y994791D01*
X825714Y1017653D02*
X843217D01*
X833545Y1022175D02*
X840606D01*
G54D15*
X811285Y1012787D02*
X839939Y1029331D01*
X848779Y1014019D01*
G54D16*
X812785Y1010189D02*
X838841Y1025232D01*
X844681Y1015117D01*
G54D18*
X782687Y977015D02*
X775579Y989327D01*
X804010D02*
X782687Y977015D01*
X839573Y1027964D02*
X846681Y1015653D01*
X818250D02*
X839573Y1027964D01*
G54D19*
X806210Y1011010D03*
X816050Y993970D03*
G54D14*
X654078Y948824D02*
X721402Y987694D01*
X730742Y971516D01*
X663418Y932646D01*
X654078Y948824D01*
G54D15*
X655364Y949007D02*
X690786D01*
X694034Y971333D02*
X729456D01*
G54D16*
X662934Y940485D02*
X669995D01*
X660323Y945007D02*
X677826D01*
G54D15*
X663601Y933329D02*
X654761Y948641D01*
X692255Y949873D02*
X663601Y933329D01*
G54D16*
X664699Y937427D02*
X658859Y947543D01*
X690755Y952471D02*
X664699Y937427D01*
X668323Y953007D02*
X691683D01*
X680730Y960170D02*
X704090D01*
X693137Y967333D02*
X716497D01*
G54D15*
X654761Y948641D02*
X692565Y970467D01*
X730059Y971699D02*
X692255Y949873D01*
G54D16*
X658859Y947543D02*
X694065Y967869D01*
X725961Y972797D02*
X690755Y952471D01*
X706994Y975333D02*
X724497D01*
X714825Y979855D02*
X721887D01*
G54D15*
X692565Y970467D02*
X721219Y987011D01*
X730059Y971699D01*
G54D16*
X694065Y967869D02*
X720121Y982913D01*
X725961Y972797D01*
G54D18*
X663967Y934695D02*
X656859Y947007D01*
X685290D02*
X663967Y934695D01*
X720853Y985644D02*
X727961Y973333D01*
X699530D02*
X720853Y985644D01*
G54D19*
X687490Y968690D03*
X697330Y951650D03*
G54D21*
X276510Y1428480D02*
Y1454740D01*
X239110Y1428480D02*
Y1454740D01*
X201710Y1428480D02*
Y1454740D01*
Y1337285D02*
Y1364255D01*
X276510Y1337285D02*
Y1364255D01*
G54D11*
X209910Y1283990D02*
X216210D01*
X272900D02*
X279200D01*
G54D22*
X529410Y599135D02*
Y615685D01*
G54D23*
X526860Y599350D02*
Y615470D01*
X531960Y599350D02*
Y615470D01*
G54D22*
X450670Y865675D02*
Y882225D01*
G54D23*
X448120Y865890D02*
Y882010D01*
X453220Y865890D02*
Y882010D01*
G54D22*
X568780Y865675D02*
Y882225D01*
G54D23*
X566230Y865890D02*
Y882010D01*
X571330Y865890D02*
Y882010D01*
G54D22*
X450670Y599135D02*
Y615685D01*
G54D23*
X448120Y599350D02*
Y615470D01*
X453220Y599350D02*
Y615470D01*
G54D22*
X588470Y599135D02*
Y615685D01*
G54D23*
X585920Y599350D02*
Y615470D01*
X591020Y599350D02*
Y615470D01*
G54D22*
X411300Y599135D02*
Y615685D01*
G54D23*
X408750Y599350D02*
Y615470D01*
X413850Y599350D02*
Y615470D01*
G54D22*
X470360Y599135D02*
Y615685D01*
G54D23*
X467810Y599350D02*
Y615470D01*
X472910Y599350D02*
Y615470D01*
G54D22*
X470360Y865675D02*
Y882225D01*
G54D23*
X467810Y865890D02*
Y882010D01*
X472910Y865890D02*
Y882010D01*
G54D22*
X430990Y865675D02*
Y882225D01*
G54D23*
X428440Y865890D02*
Y882010D01*
X433540Y865890D02*
Y882010D01*
G54D22*
X391620Y865675D02*
Y882225D01*
G54D23*
X389070Y865890D02*
Y882010D01*
X394170Y865890D02*
Y882010D01*
G54D22*
X490040Y599135D02*
Y615685D01*
G54D23*
X487490Y599350D02*
Y615470D01*
X492590Y599350D02*
Y615470D01*
G54D22*
X549100Y599135D02*
Y615685D01*
G54D23*
X546550Y599350D02*
Y615470D01*
X551650Y599350D02*
Y615470D01*
G54D22*
X430990Y599135D02*
Y615685D01*
G54D23*
X428440Y599350D02*
Y615470D01*
X433540Y599350D02*
Y615470D01*
G54D22*
X371930Y865675D02*
Y882225D01*
G54D23*
X369380Y865890D02*
Y882010D01*
X374480Y865890D02*
Y882010D01*
G54D22*
X371930Y599135D02*
Y615685D01*
G54D23*
X369380Y599350D02*
Y615470D01*
X374480Y599350D02*
Y615470D01*
G54D22*
X490040Y865675D02*
Y882225D01*
G54D23*
X487490Y865890D02*
Y882010D01*
X492590Y865890D02*
Y882010D01*
G54D22*
X549100Y865675D02*
Y882225D01*
G54D23*
X546550Y865890D02*
Y882010D01*
X551650Y865890D02*
Y882010D01*
G54D22*
X568780Y599135D02*
Y615685D01*
G54D23*
X566230Y599350D02*
Y615470D01*
X571330Y599350D02*
Y615470D01*
G54D22*
X588470Y865675D02*
Y882225D01*
G54D23*
X585920Y865890D02*
Y882010D01*
X591020Y865890D02*
Y882010D01*
G54D22*
X529410Y865675D02*
Y882225D01*
G54D23*
X526860Y865890D02*
Y882010D01*
X531960Y865890D02*
Y882010D01*
G54D22*
X391620Y599135D02*
Y615685D01*
G54D23*
X389070Y599350D02*
Y615470D01*
X394170Y599350D02*
Y615470D01*
G54D22*
X411300Y865675D02*
Y882225D01*
G54D23*
X408750Y865890D02*
Y882010D01*
X413850Y865890D02*
Y882010D01*
G54D22*
X605195Y829260D02*
X621745D01*
G54D23*
X605410Y831810D02*
X621530D01*
X605410Y826710D02*
X621530D01*
G54D22*
X605195Y770210D02*
X621745D01*
G54D23*
X605410Y772760D02*
X621530D01*
X605410Y767660D02*
X621530D01*
G54D22*
X605195Y632410D02*
X621745D01*
G54D23*
X605410Y634960D02*
X621530D01*
X605410Y629860D02*
X621530D01*
G54D22*
X605195Y789890D02*
X621745D01*
G54D23*
X605410Y792440D02*
X621530D01*
X605410Y787340D02*
X621530D01*
G54D22*
X605195Y809580D02*
X621745D01*
G54D23*
X605410Y812130D02*
X621530D01*
X605410Y807030D02*
X621530D01*
G54D22*
X338655Y770210D02*
X355205D01*
G54D23*
X338870Y772760D02*
X354990D01*
X338870Y767660D02*
X354990D01*
G54D22*
X338655Y632410D02*
X355205D01*
G54D23*
X338870Y634960D02*
X354990D01*
X338870Y629860D02*
X354990D01*
G54D22*
X338655Y789890D02*
X355205D01*
G54D23*
X338870Y792440D02*
X354990D01*
X338870Y787340D02*
X354990D01*
G54D22*
X605195Y691470D02*
X621745D01*
G54D23*
X605410Y694020D02*
X621530D01*
X605410Y688920D02*
X621530D01*
G54D22*
X338655Y809580D02*
X355205D01*
G54D23*
X338870Y812130D02*
X354990D01*
X338870Y807030D02*
X354990D01*
G54D22*
X605195Y671780D02*
X621745D01*
G54D23*
X605410Y674330D02*
X621530D01*
X605410Y669230D02*
X621530D01*
G54D22*
X338655Y730840D02*
X355205D01*
G54D23*
X338870Y733390D02*
X354990D01*
X338870Y728290D02*
X354990D01*
G54D22*
X338655Y711150D02*
X355205D01*
G54D23*
X338870Y713700D02*
X354990D01*
X338870Y708600D02*
X354990D01*
G54D22*
X338655Y691470D02*
X355205D01*
G54D23*
X338870Y694020D02*
X354990D01*
X338870Y688920D02*
X354990D01*
G54D22*
X338655Y671780D02*
X355205D01*
G54D23*
X338870Y674330D02*
X354990D01*
X338870Y669230D02*
X354990D01*
G54D22*
X605195Y711150D02*
X621745D01*
G54D23*
X605410Y713700D02*
X621530D01*
X605410Y708600D02*
X621530D01*
G54D22*
X605195Y730840D02*
X621745D01*
G54D23*
X605410Y733390D02*
X621530D01*
X605410Y728290D02*
X621530D01*
G54D22*
X338655Y829260D02*
X355205D01*
G54D23*
X338870Y831810D02*
X354990D01*
X338870Y826710D02*
X354990D01*
G54D22*
X605195Y652100D02*
X621745D01*
G54D23*
X605410Y654650D02*
X621530D01*
X605410Y649550D02*
X621530D01*
G54D22*
X605195Y750520D02*
X621745D01*
G54D23*
X605410Y753070D02*
X621530D01*
X605410Y747970D02*
X621530D01*
G54D22*
X338655Y848950D02*
X355205D01*
G54D23*
X338870Y851500D02*
X354990D01*
X338870Y846400D02*
X354990D01*
G54D22*
X338655Y750520D02*
X355205D01*
G54D23*
X338870Y753070D02*
X354990D01*
X338870Y747970D02*
X354990D01*
G54D22*
X605195Y848950D02*
X621745D01*
G54D23*
X605410Y851500D02*
X621530D01*
X605410Y846400D02*
X621530D01*
G54D22*
X338655Y652100D02*
X355205D01*
G54D23*
X338870Y654650D02*
X354990D01*
X338870Y649550D02*
X354990D01*
G54D22*
X509730Y599135D02*
Y615685D01*
G54D23*
X507180Y599350D02*
Y615470D01*
X512280Y599350D02*
Y615470D01*
G54D22*
X509730Y865675D02*
Y882225D01*
G54D23*
X507180Y865890D02*
Y882010D01*
X512280Y865890D02*
Y882010D01*
G36*
X480407Y740181D02*
X479993D01*
X479701Y740473D01*
Y740887D01*
X479993Y741179D01*
X480407D01*
X480699Y740887D01*
Y740473D01*
X480407Y740181D01*
G37*
G54D24*
X422340Y937120D03*
G54D25*
X392210Y920800D03*
X356780Y915880D03*
G54D20*
X474300Y978760D02*
Y983560D01*
Y1022060D02*
Y1026860D01*
X802640Y435130D02*
Y439930D01*
Y391820D02*
Y396620D01*
X278040Y646740D02*
Y651540D01*
Y603440D02*
Y608240D01*
X568780Y558160D02*
Y562960D01*
Y514850D02*
Y519650D01*
X977840Y793400D02*
Y798200D01*
Y750090D02*
Y754890D01*
X130400Y1165440D02*
Y1170240D01*
Y1122140D02*
Y1126940D01*
X110750Y1397480D02*
Y1402280D01*
Y1354170D02*
Y1358970D01*
X1174690Y588670D02*
Y593470D01*
Y545370D02*
Y550170D01*
X433550Y1976470D02*
Y1981270D01*
Y2019770D02*
Y2024570D01*
X1192410Y2153630D02*
Y2158430D01*
Y2196940D02*
Y2201740D01*
X284250Y1713610D02*
Y1718410D01*
Y1756920D02*
Y1761720D01*
X1167800Y2291430D02*
Y2296230D01*
Y2248120D02*
Y2252920D01*
X1157750Y2196940D02*
Y2201740D01*
Y2153630D02*
Y2158430D01*
X238670Y1096550D02*
Y1101350D01*
Y1053240D02*
Y1058040D01*
X272460Y1052350D02*
Y1057150D01*
Y1095660D02*
Y1100460D01*
G54D26*
X1003780Y570535D02*
Y589965D01*
X1120220Y570535D02*
Y589965D01*
G54D27*
X704020Y796780D02*
X745360D01*
X704020Y771190D02*
X745360D01*
X704020Y745600D02*
X745360D01*
X704020Y720010D02*
X745360D01*
X900870D02*
X942210D01*
X900870Y745600D02*
X942210D01*
X900870Y771190D02*
X942210D01*
X900870Y796780D02*
X942210D01*
G54D28*
X412750Y1075325D02*
Y1083195D01*
Y976905D02*
Y984775D01*
X337940Y1075325D02*
Y1083195D01*
Y976905D02*
Y984775D01*
G54D29*
X417520Y1550130D02*
Y1555250D01*
X492320Y1550130D02*
Y1555250D01*
X417520Y1631990D02*
Y1637110D01*
X492320Y1631990D02*
Y1637110D01*
X780950Y1918750D02*
Y1923870D01*
X855750Y1918750D02*
Y1923870D01*
G54D30*
X292790Y1842060D02*
X304610D01*
X292790Y1879460D02*
X304610D01*
X292790Y1916860D02*
X304610D01*
X389250D02*
X401070D01*
X389250Y1879460D02*
X401070D01*
X389250Y1842060D02*
X401070D01*
G54D31*
X438670Y538020D03*
X460120Y500520D03*
G54D32*
X508395Y294290D02*
X516265D01*
X823315Y227880D02*
X831185D01*
X732765Y581230D02*
X740635D01*
X758735Y629940D02*
X766605D01*
X808705Y667840D02*
X816575D01*
G54D33*
X58550Y1092210D03*
G54D30*
X1119570Y436950D02*
X1147130D01*
X1119570Y486950D02*
X1147130D01*
X843980D02*
X871540D01*
X843980Y436950D02*
X871540D01*
G54D19*
X886145Y1106820D02*
X905835D01*
X912875Y1241980D02*
X932565D01*
G54D14*
X1171111Y1951229D02*
X1226081Y2006200D01*
X1239289Y1992991D01*
X1184319Y1938021D01*
X1171111Y1951229D01*
G54D15*
X1171796D02*
X1196843D01*
X1213557Y1992991D02*
X1238604D01*
G54D18*
X1181842Y1942619D02*
X1186796D01*
X1178537Y1945924D02*
X1190101D01*
X1175232Y1949229D02*
X1193406D01*
G54D15*
X1184319Y1938728D02*
X1171818Y1951229D01*
X1197528Y1951936D02*
X1184319Y1938728D01*
G54D18*
Y1940142D02*
X1173232Y1951229D01*
X1196821Y1952643D02*
X1184319Y1940142D01*
G54D17*
X1189717Y1959229D02*
X1194921D01*
X1202598Y1972110D02*
X1207802D01*
X1215479Y1984991D02*
X1220683D01*
G54D15*
X1171818Y1951229D02*
X1212872Y1992284D01*
X1238582Y1992991D02*
X1197528Y1951936D01*
G54D17*
X1181717Y1951229D02*
X1217822Y1987334D01*
X1228683Y1992991D02*
X1192578Y1956886D01*
G54D18*
X1216994Y1994991D02*
X1235168D01*
X1220299Y1998296D02*
X1231863D01*
X1223604Y2001601D02*
X1228558D01*
G54D15*
X1212872Y1992284D02*
X1226081Y2005492D01*
X1238582Y1992991D01*
G54D18*
X1213579Y1991577D02*
X1226081Y2004078D01*
X1237168Y1992991D01*
G54D19*
X1212160Y1965150D03*
X1198240Y1979070D03*
G54D14*
X1252790Y2043677D02*
X1302760Y2103230D01*
X1317070Y2091223D01*
X1267100Y2031670D01*
X1252790Y2043677D01*
G54D15*
X1253617Y2043616D02*
X1276491D01*
X1293369Y2091284D02*
X1316243D01*
G54D18*
X1264453Y2035849D02*
X1268648D01*
X1261017Y2038732D02*
X1271068D01*
X1257581Y2041616D02*
X1273487D01*
G54D15*
X1267038Y2032375D02*
X1253494Y2043739D01*
X1277010Y2044259D02*
X1267038Y2032375D01*
G54D18*
X1266915Y2033783D02*
X1254903Y2043862D01*
X1276244Y2044901D02*
X1266915Y2033783D01*
G54D17*
X1269242Y2051616D02*
X1274046D01*
X1278099Y2062172D02*
X1282903D01*
X1286957Y2072728D02*
X1291761D01*
X1295814Y2083284D02*
X1300618D01*
G54D15*
X1253494Y2043739D02*
X1292850Y2090641D01*
X1316366Y2091161D02*
X1277010Y2044259D01*
G54D17*
X1263356Y2044602D02*
X1298212Y2086142D01*
X1306504Y2090298D02*
X1271648Y2048758D01*
G54D18*
X1296373Y2093284D02*
X1312279D01*
X1298792Y2096168D02*
X1308843D01*
X1301212Y2099051D02*
X1305407D01*
G54D15*
X1292850Y2090641D02*
X1302822Y2102525D01*
X1316366Y2091161D01*
G54D18*
X1293616Y2089999D02*
X1302945Y2101117D01*
X1314957Y2091038D01*
G54D19*
X1292470Y2061120D03*
X1277390Y2073780D03*
G54D14*
X822894Y1548653D02*
X838196Y1559368D01*
X882786Y1495687D01*
X867484Y1484972D01*
X822894Y1548653D01*
G54D15*
X823914Y1548776D02*
X845021D01*
X860659Y1495564D02*
X881766D01*
G54D17*
X863622Y1503564D02*
X868114D01*
X854937Y1515968D02*
X859429D01*
X846251Y1528372D02*
X850744D01*
X837566Y1540776D02*
X842058D01*
G54D15*
X860276Y1496138D02*
X823591Y1548530D01*
X845404Y1548202D02*
X882089Y1495810D01*
G54D17*
X866011Y1500153D02*
X833340Y1546811D01*
X839670Y1544187D02*
X872340Y1497529D01*
G54D18*
X828541Y1550776D02*
X842381D01*
X833745Y1554420D02*
X839829D01*
G54D15*
X823591Y1548530D02*
X838073Y1558671D01*
X845404Y1548202D01*
G54D18*
X824983Y1548285D02*
X837828Y1557278D01*
X844584Y1547629D01*
X865851Y1489920D02*
X871935D01*
X863299Y1493564D02*
X877139D01*
G54D15*
X867607Y1485669D02*
X860276Y1496138D01*
X882089Y1495810D02*
X867607Y1485669D01*
G54D18*
X867852Y1487062D02*
X861096Y1496711D01*
X880697Y1496055D02*
X867852Y1487062D01*
G54D19*
X860900Y1527810D03*
X844780Y1516530D03*
G54D29*
X483150Y1989690D02*
X488270D01*
X483150Y2064500D02*
X488270D01*
G54D28*
X453230Y1834180D02*
X555590D01*
X453230Y1716070D02*
X555590D01*
G54D34*
X935950Y2008470D02*
Y2066110D01*
X985950Y2008470D02*
Y2066110D01*
X1035950Y2008470D02*
Y2066110D01*
X1085950Y2008470D02*
Y2066110D01*
X935950Y2226500D02*
Y2284140D01*
X985950Y2226500D02*
Y2284140D01*
X1035950Y2226500D02*
Y2284140D01*
X1085950Y2226500D02*
Y2284140D01*
G54D35*
X995205Y2146310D02*
X1026695D01*
G54D36*
X1052055Y1759180D02*
X1055205D01*
X1052055Y1893040D02*
X1055205D01*
G54D37*
X950950Y1747565D02*
Y1753475D01*
Y1899135D02*
Y1905045D01*
G36*
X1027550Y2716060D02*
X1023620Y2712120D01*
X983950D01*
X980010Y2716060D01*
Y2775150D01*
X983950Y2779090D01*
X1023620D01*
X1027550Y2775150D01*
Y2760930D01*
X1023620Y2756990D01*
X1015320D01*
X1011390Y2753050D01*
Y2738160D01*
X1015320Y2734220D01*
X1023620D01*
X1027550Y2730280D01*
Y2716060D01*
G37*
G36*
X1096450D02*
Y2730280D01*
X1100390Y2734220D01*
X1108680D01*
X1112610Y2738160D01*
Y2753050D01*
X1108680Y2756990D01*
X1100390D01*
X1096450Y2760930D01*
Y2775150D01*
X1100390Y2779090D01*
X1140050D01*
X1143990Y2775150D01*
Y2716060D01*
X1140050Y2712120D01*
X1100390D01*
X1096450Y2716060D01*
G37*
G54D10*
X406580Y2979660D03*
X480200D03*
X553820D03*
Y2906040D03*
X480200D03*
X406580D03*
Y2832420D03*
X480200D03*
X553820D03*
G54D11*
X327640Y3471510D02*
Y3477810D01*
Y3408520D02*
Y3414820D01*
X327740Y3662340D02*
Y3668640D01*
Y3725330D02*
Y3731630D01*
G36*
X1220870Y4217070D02*
X1196740Y4237320D01*
X1221030Y4266270D01*
X1245160Y4246020D01*
X1220870Y4217070D01*
G37*
G36*
X1180380Y4168810D02*
X1156250Y4189060D01*
X1180540Y4218010D01*
X1204670Y4197760D01*
X1180380Y4168810D01*
G37*
G54D12*
X790950Y4235210D02*
Y4428130D01*
X605910Y4235210D02*
Y4428130D01*
G54D13*
X2021520Y2491690D02*
X2045140D01*
X1911280D02*
X1934900D01*
X1911280Y2420830D02*
X1934900D01*
X2021520D02*
X2045140D01*
G54D14*
X853450Y3580770D02*
X938809Y3603641D01*
X958930Y3528550D01*
X873571Y3505679D01*
X853450Y3580770D01*
G54D15*
X856642Y3581124D02*
X944341D01*
X868039Y3528197D02*
X955738D01*
G54D16*
X883222Y3585124D02*
X940148D01*
X911456Y3592689D02*
X938121D01*
G54D15*
X854063Y3580416D02*
X938456Y3603029D01*
X944395Y3580865D01*
G54D16*
X857737Y3578295D02*
X936335Y3599355D01*
X941497Y3580088D01*
G54D17*
X873158Y3536197D02*
X949116D01*
X869860Y3548506D02*
X945818D01*
X866562Y3560815D02*
X942520D01*
X863264Y3573124D02*
X939222D01*
G54D15*
X867985Y3528455D02*
X854063Y3580416D01*
X944395Y3580865D02*
X958317Y3528904D01*
G54D17*
X874747Y3530267D02*
X862636Y3575467D01*
X937633Y3579053D02*
X949744Y3533853D01*
G54D16*
X874259Y3516631D02*
X900925D01*
X872232Y3524197D02*
X929159D01*
G54D15*
X873924Y3506291D02*
X867985Y3528455D01*
X958317Y3528904D02*
X873924Y3506291D01*
G54D16*
X876046Y3509965D02*
X870883Y3529232D01*
X954643Y3531025D02*
X876046Y3509965D01*
G54D18*
X937749Y3601804D02*
X942754Y3583124D01*
X868030D02*
X937749Y3601804D01*
X874631Y3507516D02*
X869626Y3526197D01*
X944350D02*
X874631Y3507516D01*
G54D19*
X863030Y3543090D03*
X949350Y3566230D03*
X713365Y3677740D02*
X733055D01*
G54D20*
X1594390Y2421270D02*
X1599190D01*
X1637700D02*
X1642500D01*
X1594160Y2460870D02*
X1598960D01*
X1637470D02*
X1642270D01*
X1594000Y2504260D02*
X1598800D01*
X1637310D02*
X1642110D01*
X256920Y3403720D02*
X261720D01*
X213610D02*
X218410D01*
X507970Y3146610D02*
X512770D01*
X551280D02*
X556080D01*
X489220Y2505450D02*
X494020D01*
X532530D02*
X537330D01*
X489220Y2538910D02*
X494020D01*
X532530D02*
X537330D01*
X532530Y2572380D02*
X537330D01*
X489220D02*
X494020D01*
X804270Y2504490D02*
X809070D01*
X847580D02*
X852380D01*
X848470Y2471980D02*
X853270D01*
X805160D02*
X809960D01*
X805160Y2436670D02*
X809960D01*
X848470D02*
X853270D01*
X758900Y3036940D02*
X763700D01*
X802210D02*
X807010D01*
X400640Y3303520D02*
X405440D01*
X357330D02*
X362130D01*
X227800Y3660000D02*
X232600D01*
X271110D02*
X275910D01*
X1001860Y3842460D02*
X1006660D01*
X958550D02*
X963350D01*
X585670Y3715290D02*
X590470D01*
X542370D02*
X547170D01*
X270150Y4127490D02*
X274950D01*
X313460D02*
X318260D01*
X370620Y3951310D02*
X375420D01*
X327310D02*
X332110D01*
X484300Y4081670D02*
X489100D01*
X440990D02*
X445790D01*
X990200Y4488710D02*
X995000D01*
X1033510D02*
X1038310D01*
X1117170Y4135370D02*
X1121970D01*
X1073860D02*
X1078660D01*
X183800Y3253480D02*
X188600D01*
X140490D02*
X145290D01*
G54D14*
X772798Y3156504D02*
X840122Y3195374D01*
X849462Y3179196D01*
X782138Y3140326D01*
X772798Y3156504D01*
G54D15*
X774084Y3156687D02*
X809506D01*
X812754Y3179013D02*
X848176D01*
G54D16*
X781654Y3148165D02*
X788715D01*
X779043Y3152687D02*
X796546D01*
G54D15*
X782321Y3141009D02*
X773481Y3156321D01*
X810975Y3157553D02*
X782321Y3141009D01*
G54D16*
X783419Y3145107D02*
X777579Y3155223D01*
X809475Y3160151D02*
X783419Y3145107D01*
X787043Y3160687D02*
X810403D01*
X799450Y3167850D02*
X822810D01*
X811857Y3175013D02*
X835217D01*
G54D15*
X773481Y3156321D02*
X811285Y3178147D01*
X848779Y3179379D02*
X810975Y3157553D01*
G54D16*
X777579Y3155223D02*
X812785Y3175549D01*
X844681Y3180477D02*
X809475Y3160151D01*
X825714Y3183013D02*
X843217D01*
X833545Y3187535D02*
X840606D01*
G54D15*
X811285Y3178147D02*
X839939Y3194691D01*
X848779Y3179379D01*
G54D16*
X812785Y3175549D02*
X838841Y3190593D01*
X844681Y3180477D01*
G54D18*
X782687Y3142375D02*
X775579Y3154687D01*
X804010D02*
X782687Y3142375D01*
X839573Y3193325D02*
X846681Y3181013D01*
X818250D02*
X839573Y3193325D01*
G54D19*
X806210Y3176370D03*
X816050Y3159330D03*
G54D14*
X654078Y3114184D02*
X721402Y3153054D01*
X730742Y3136876D01*
X663418Y3098006D01*
X654078Y3114184D01*
G54D15*
X655364Y3114367D02*
X690786D01*
X694034Y3136693D02*
X729456D01*
G54D16*
X662934Y3105845D02*
X669995D01*
X660323Y3110367D02*
X677826D01*
G54D15*
X663601Y3098689D02*
X654761Y3114001D01*
X692255Y3115233D02*
X663601Y3098689D01*
G54D16*
X664699Y3102788D02*
X658859Y3112903D01*
X690755Y3117831D02*
X664699Y3102788D01*
X668323Y3118367D02*
X691683D01*
X680730Y3125530D02*
X704090D01*
X693137Y3132693D02*
X716497D01*
G54D15*
X654761Y3114001D02*
X692565Y3135827D01*
X730059Y3137059D02*
X692255Y3115233D01*
G54D16*
X658859Y3112903D02*
X694065Y3133229D01*
X725961Y3138157D02*
X690755Y3117831D01*
X706994Y3140693D02*
X724497D01*
X714825Y3145215D02*
X721887D01*
G54D15*
X692565Y3135827D02*
X721219Y3152371D01*
X730059Y3137059D01*
G54D16*
X694065Y3133229D02*
X720121Y3148273D01*
X725961Y3138157D01*
G54D18*
X663967Y3100056D02*
X656859Y3112367D01*
X685290D02*
X663967Y3100056D01*
X720853Y3151005D02*
X727961Y3138693D01*
X699530D02*
X720853Y3151005D01*
G54D19*
X687490Y3134050D03*
X697330Y3117010D03*
G54D21*
X276510Y3593840D02*
Y3620100D01*
X239110Y3593840D02*
Y3620100D01*
X201710Y3593840D02*
Y3620100D01*
Y3502645D02*
Y3529615D01*
X276510Y3502645D02*
Y3529615D01*
G54D11*
X209910Y3449350D02*
X216210D01*
X272900D02*
X279200D01*
G54D22*
X529410Y2764495D02*
Y2781045D01*
G54D23*
X526860Y2764710D02*
Y2780830D01*
X531960Y2764710D02*
Y2780830D01*
G54D22*
X450670Y3031035D02*
Y3047585D01*
G54D23*
X448120Y3031250D02*
Y3047370D01*
X453220Y3031250D02*
Y3047370D01*
G54D22*
X568780Y3031035D02*
Y3047585D01*
G54D23*
X566230Y3031250D02*
Y3047370D01*
X571330Y3031250D02*
Y3047370D01*
G54D22*
X450670Y2764495D02*
Y2781045D01*
G54D23*
X448120Y2764710D02*
Y2780830D01*
X453220Y2764710D02*
Y2780830D01*
G54D22*
X588470Y2764495D02*
Y2781045D01*
G54D23*
X585920Y2764710D02*
Y2780830D01*
X591020Y2764710D02*
Y2780830D01*
G54D22*
X411300Y2764495D02*
Y2781045D01*
G54D23*
X408750Y2764710D02*
Y2780830D01*
X413850Y2764710D02*
Y2780830D01*
G54D22*
X470360Y2764495D02*
Y2781045D01*
G54D23*
X467810Y2764710D02*
Y2780830D01*
X472910Y2764710D02*
Y2780830D01*
G54D22*
X470360Y3031035D02*
Y3047585D01*
G54D23*
X467810Y3031250D02*
Y3047370D01*
X472910Y3031250D02*
Y3047370D01*
G54D22*
X430990Y3031035D02*
Y3047585D01*
G54D23*
X428440Y3031250D02*
Y3047370D01*
X433540Y3031250D02*
Y3047370D01*
G54D22*
X391620Y3031035D02*
Y3047585D01*
G54D23*
X389070Y3031250D02*
Y3047370D01*
X394170Y3031250D02*
Y3047370D01*
G54D22*
X490040Y2764495D02*
Y2781045D01*
G54D23*
X487490Y2764710D02*
Y2780830D01*
X492590Y2764710D02*
Y2780830D01*
G54D22*
X549100Y2764495D02*
Y2781045D01*
G54D23*
X546550Y2764710D02*
Y2780830D01*
X551650Y2764710D02*
Y2780830D01*
G54D22*
X430990Y2764495D02*
Y2781045D01*
G54D23*
X428440Y2764710D02*
Y2780830D01*
X433540Y2764710D02*
Y2780830D01*
G54D22*
X371930Y3031035D02*
Y3047585D01*
G54D23*
X369380Y3031250D02*
Y3047370D01*
X374480Y3031250D02*
Y3047370D01*
G54D22*
X371930Y2764495D02*
Y2781045D01*
G54D23*
X369380Y2764710D02*
Y2780830D01*
X374480Y2764710D02*
Y2780830D01*
G54D22*
X490040Y3031035D02*
Y3047585D01*
G54D23*
X487490Y3031250D02*
Y3047370D01*
X492590Y3031250D02*
Y3047370D01*
G54D22*
X549100Y3031035D02*
Y3047585D01*
G54D23*
X546550Y3031250D02*
Y3047370D01*
X551650Y3031250D02*
Y3047370D01*
G54D22*
X568780Y2764495D02*
Y2781045D01*
G54D23*
X566230Y2764710D02*
Y2780830D01*
X571330Y2764710D02*
Y2780830D01*
G54D22*
X588470Y3031035D02*
Y3047585D01*
G54D23*
X585920Y3031250D02*
Y3047370D01*
X591020Y3031250D02*
Y3047370D01*
G54D22*
X529410Y3031035D02*
Y3047585D01*
G54D23*
X526860Y3031250D02*
Y3047370D01*
X531960Y3031250D02*
Y3047370D01*
G54D22*
X391620Y2764495D02*
Y2781045D01*
G54D23*
X389070Y2764710D02*
Y2780830D01*
X394170Y2764710D02*
Y2780830D01*
G54D22*
X411300Y3031035D02*
Y3047585D01*
G54D23*
X408750Y3031250D02*
Y3047370D01*
X413850Y3031250D02*
Y3047370D01*
G54D22*
X605195Y2994620D02*
X621745D01*
G54D23*
X605410Y2997170D02*
X621530D01*
X605410Y2992070D02*
X621530D01*
G54D22*
X605195Y2935570D02*
X621745D01*
G54D23*
X605410Y2938120D02*
X621530D01*
X605410Y2933020D02*
X621530D01*
G54D22*
X605195Y2797770D02*
X621745D01*
G54D23*
X605410Y2800320D02*
X621530D01*
X605410Y2795220D02*
X621530D01*
G54D22*
X605195Y2955250D02*
X621745D01*
G54D23*
X605410Y2957800D02*
X621530D01*
X605410Y2952700D02*
X621530D01*
G54D22*
X605195Y2974940D02*
X621745D01*
G54D23*
X605410Y2977490D02*
X621530D01*
X605410Y2972390D02*
X621530D01*
G54D22*
X338655Y2935570D02*
X355205D01*
G54D23*
X338870Y2938120D02*
X354990D01*
X338870Y2933020D02*
X354990D01*
G54D22*
X338655Y2797770D02*
X355205D01*
G54D23*
X338870Y2800320D02*
X354990D01*
X338870Y2795220D02*
X354990D01*
G54D22*
X338655Y2955250D02*
X355205D01*
G54D23*
X338870Y2957800D02*
X354990D01*
X338870Y2952700D02*
X354990D01*
G54D22*
X605195Y2856830D02*
X621745D01*
G54D23*
X605410Y2859380D02*
X621530D01*
X605410Y2854280D02*
X621530D01*
G54D22*
X338655Y2974940D02*
X355205D01*
G54D23*
X338870Y2977490D02*
X354990D01*
X338870Y2972390D02*
X354990D01*
G54D22*
X605195Y2837140D02*
X621745D01*
G54D23*
X605410Y2839690D02*
X621530D01*
X605410Y2834590D02*
X621530D01*
G54D22*
X338655Y2896200D02*
X355205D01*
G54D23*
X338870Y2898750D02*
X354990D01*
X338870Y2893650D02*
X354990D01*
G54D22*
X338655Y2876510D02*
X355205D01*
G54D23*
X338870Y2879060D02*
X354990D01*
X338870Y2873960D02*
X354990D01*
G54D22*
X338655Y2856830D02*
X355205D01*
G54D23*
X338870Y2859380D02*
X354990D01*
X338870Y2854280D02*
X354990D01*
G54D22*
X338655Y2837140D02*
X355205D01*
G54D23*
X338870Y2839690D02*
X354990D01*
X338870Y2834590D02*
X354990D01*
G54D22*
X605195Y2876510D02*
X621745D01*
G54D23*
X605410Y2879060D02*
X621530D01*
X605410Y2873960D02*
X621530D01*
G54D22*
X605195Y2896200D02*
X621745D01*
G54D23*
X605410Y2898750D02*
X621530D01*
X605410Y2893650D02*
X621530D01*
G54D22*
X338655Y2994620D02*
X355205D01*
G54D23*
X338870Y2997170D02*
X354990D01*
X338870Y2992070D02*
X354990D01*
G54D22*
X605195Y2817460D02*
X621745D01*
G54D23*
X605410Y2820010D02*
X621530D01*
X605410Y2814910D02*
X621530D01*
G54D22*
X605195Y2915880D02*
X621745D01*
G54D23*
X605410Y2918430D02*
X621530D01*
X605410Y2913330D02*
X621530D01*
G54D22*
X338655Y3014310D02*
X355205D01*
G54D23*
X338870Y3016860D02*
X354990D01*
X338870Y3011760D02*
X354990D01*
G54D22*
X338655Y2915880D02*
X355205D01*
G54D23*
X338870Y2918430D02*
X354990D01*
X338870Y2913330D02*
X354990D01*
G54D22*
X605195Y3014310D02*
X621745D01*
G54D23*
X605410Y3016860D02*
X621530D01*
X605410Y3011760D02*
X621530D01*
G54D22*
X338655Y2817460D02*
X355205D01*
G54D23*
X338870Y2820010D02*
X354990D01*
X338870Y2814910D02*
X354990D01*
G54D22*
X509730Y2764495D02*
Y2781045D01*
G54D23*
X507180Y2764710D02*
Y2780830D01*
X512280Y2764710D02*
Y2780830D01*
G54D22*
X509730Y3031035D02*
Y3047585D01*
G54D23*
X507180Y3031250D02*
Y3047370D01*
X512280Y3031250D02*
Y3047370D01*
G36*
X480407Y2905541D02*
X479993D01*
X479701Y2905833D01*
Y2906247D01*
X479993Y2906539D01*
X480407D01*
X480699Y2906247D01*
Y2905833D01*
X480407Y2905541D01*
G37*
G54D24*
X422340Y3102480D03*
G54D25*
X392210Y3086160D03*
X356780Y3081240D03*
G54D20*
X474300Y3144120D02*
Y3148920D01*
Y3187420D02*
Y3192220D01*
X802640Y2600490D02*
Y2605290D01*
Y2557180D02*
Y2561980D01*
X278040Y2812100D02*
Y2816900D01*
Y2768800D02*
Y2773600D01*
X568780Y2723520D02*
Y2728320D01*
Y2680210D02*
Y2685010D01*
X977840Y2958760D02*
Y2963560D01*
Y2915450D02*
Y2920250D01*
X130400Y3330800D02*
Y3335600D01*
Y3287500D02*
Y3292300D01*
X110750Y3562840D02*
Y3567640D01*
Y3519530D02*
Y3524330D01*
X1174690Y2754030D02*
Y2758830D01*
Y2710730D02*
Y2715530D01*
X433550Y4141830D02*
Y4146630D01*
Y4185130D02*
Y4189930D01*
X1192410Y4318990D02*
Y4323790D01*
Y4362300D02*
Y4367100D01*
X284250Y3878970D02*
Y3883770D01*
Y3922280D02*
Y3927080D01*
X1167800Y4456790D02*
Y4461590D01*
Y4413480D02*
Y4418280D01*
X1157750Y4362300D02*
Y4367100D01*
Y4318990D02*
Y4323790D01*
X238670Y3261910D02*
Y3266710D01*
Y3218600D02*
Y3223400D01*
X272460Y3217710D02*
Y3222510D01*
Y3261020D02*
Y3265820D01*
G54D26*
X1003780Y2735895D02*
Y2755325D01*
X1120220Y2735895D02*
Y2755325D01*
G54D27*
X704020Y2962140D02*
X745360D01*
X704020Y2936550D02*
X745360D01*
X704020Y2910960D02*
X745360D01*
X704020Y2885370D02*
X745360D01*
X900870D02*
X942210D01*
X900870Y2910960D02*
X942210D01*
X900870Y2936550D02*
X942210D01*
X900870Y2962140D02*
X942210D01*
G54D28*
X412750Y3240685D02*
Y3248555D01*
Y3142265D02*
Y3150135D01*
X337940Y3240685D02*
Y3248555D01*
Y3142265D02*
Y3150135D01*
G54D29*
X417520Y3715490D02*
Y3720610D01*
X492320Y3715490D02*
Y3720610D01*
X417520Y3797350D02*
Y3802470D01*
X492320Y3797350D02*
Y3802470D01*
X780950Y4084110D02*
Y4089230D01*
X855750Y4084110D02*
Y4089230D01*
G54D30*
X292790Y4007420D02*
X304610D01*
X292790Y4044820D02*
X304610D01*
X292790Y4082220D02*
X304610D01*
X389250D02*
X401070D01*
X389250Y4044820D02*
X401070D01*
X389250Y4007420D02*
X401070D01*
G54D31*
X438670Y2703380D03*
X460120Y2665880D03*
G54D32*
X508395Y2459650D02*
X516265D01*
X823315Y2393240D02*
X831185D01*
X732765Y2746590D02*
X740635D01*
X758735Y2795300D02*
X766605D01*
X808705Y2833200D02*
X816575D01*
G54D33*
X58550Y3257570D03*
G54D30*
X1119570Y2602310D02*
X1147130D01*
X1119570Y2652310D02*
X1147130D01*
X843980D02*
X871540D01*
X843980Y2602310D02*
X871540D01*
G54D19*
X886145Y3272180D02*
X905835D01*
X912875Y3407340D02*
X932565D01*
G54D14*
X1171111Y4116589D02*
X1226081Y4171560D01*
X1239289Y4158351D01*
X1184319Y4103381D01*
X1171111Y4116589D01*
G54D15*
X1171796D02*
X1196843D01*
X1213557Y4158351D02*
X1238604D01*
G54D18*
X1181842Y4107979D02*
X1186796D01*
X1178537Y4111284D02*
X1190101D01*
X1175232Y4114589D02*
X1193406D01*
G54D15*
X1184319Y4104088D02*
X1171818Y4116589D01*
X1197528Y4117296D02*
X1184319Y4104088D01*
G54D18*
Y4105502D02*
X1173232Y4116589D01*
X1196821Y4118003D02*
X1184319Y4105502D01*
G54D17*
X1189717Y4124589D02*
X1194921D01*
X1202598Y4137470D02*
X1207802D01*
X1215479Y4150351D02*
X1220683D01*
G54D15*
X1171818Y4116589D02*
X1212872Y4157644D01*
X1238582Y4158351D02*
X1197528Y4117296D01*
G54D17*
X1181717Y4116589D02*
X1217822Y4152694D01*
X1228683Y4158351D02*
X1192578Y4122246D01*
G54D18*
X1216994Y4160351D02*
X1235168D01*
X1220299Y4163656D02*
X1231863D01*
X1223604Y4166961D02*
X1228558D01*
G54D15*
X1212872Y4157644D02*
X1226081Y4170852D01*
X1238582Y4158351D01*
G54D18*
X1213579Y4156937D02*
X1226081Y4169438D01*
X1237168Y4158351D01*
G54D19*
X1212160Y4130510D03*
X1198240Y4144430D03*
G54D14*
X1252790Y4209038D02*
X1302760Y4268590D01*
X1317070Y4256583D01*
X1267100Y4197030D01*
X1252790Y4209038D01*
G54D15*
X1253617Y4208976D02*
X1276491D01*
X1293369Y4256644D02*
X1316243D01*
G54D18*
X1264453Y4201209D02*
X1268648D01*
X1261017Y4204093D02*
X1271068D01*
X1257581Y4206976D02*
X1273487D01*
G54D15*
X1267038Y4197735D02*
X1253494Y4209099D01*
X1277010Y4209619D02*
X1267038Y4197735D01*
G54D18*
X1266915Y4199144D02*
X1254903Y4209222D01*
X1276244Y4210261D02*
X1266915Y4199144D01*
G54D17*
X1269242Y4216976D02*
X1274046D01*
X1278099Y4227532D02*
X1282903D01*
X1286957Y4238088D02*
X1291761D01*
X1295814Y4248644D02*
X1300618D01*
G54D15*
X1253494Y4209099D02*
X1292850Y4256001D01*
X1316366Y4256521D02*
X1277010Y4209619D01*
G54D17*
X1263356Y4209962D02*
X1298212Y4251502D01*
X1306504Y4255658D02*
X1271648Y4214118D01*
G54D18*
X1296373Y4258644D02*
X1312279D01*
X1298792Y4261528D02*
X1308843D01*
X1301212Y4264411D02*
X1305407D01*
G54D15*
X1292850Y4256001D02*
X1302822Y4267885D01*
X1316366Y4256521D01*
G54D18*
X1293616Y4255359D02*
X1302945Y4266477D01*
X1314957Y4256398D01*
G54D19*
X1292470Y4226480D03*
X1277390Y4239140D03*
G54D14*
X822894Y3714013D02*
X838196Y3724728D01*
X882786Y3661047D01*
X867484Y3650332D01*
X822894Y3714013D01*
G54D15*
X823914Y3714136D02*
X845021D01*
X860659Y3660924D02*
X881766D01*
G54D17*
X863622Y3668924D02*
X868114D01*
X854937Y3681328D02*
X859429D01*
X846251Y3693732D02*
X850744D01*
X837566Y3706136D02*
X842058D01*
G54D15*
X860276Y3661498D02*
X823591Y3713890D01*
X845404Y3713562D02*
X882089Y3661170D01*
G54D17*
X866011Y3665513D02*
X833340Y3712171D01*
X839670Y3709547D02*
X872340Y3662889D01*
G54D18*
X828541Y3716136D02*
X842381D01*
X833745Y3719780D02*
X839829D01*
G54D15*
X823591Y3713890D02*
X838073Y3724031D01*
X845404Y3713562D01*
G54D18*
X824983Y3713645D02*
X837828Y3722638D01*
X844584Y3712989D01*
X865851Y3655280D02*
X871935D01*
X863299Y3658924D02*
X877139D01*
G54D15*
X867607Y3651029D02*
X860276Y3661498D01*
X882089Y3661170D02*
X867607Y3651029D01*
G54D18*
X867852Y3652422D02*
X861096Y3662071D01*
X880697Y3661415D02*
X867852Y3652422D01*
G54D19*
X860900Y3693170D03*
X844780Y3681890D03*
G54D29*
X483150Y4155050D02*
X488270D01*
X483150Y4229860D02*
X488270D01*
G54D28*
X453230Y3999540D02*
X555590D01*
X453230Y3881430D02*
X555590D01*
G54D34*
X935950Y4173830D02*
Y4231470D01*
X985950Y4173830D02*
Y4231470D01*
X1035950Y4173830D02*
Y4231470D01*
X1085950Y4173830D02*
Y4231470D01*
X935950Y4391860D02*
Y4449500D01*
X985950Y4391860D02*
Y4449500D01*
X1035950Y4391860D02*
Y4449500D01*
X1085950Y4391860D02*
Y4449500D01*
G54D35*
X995205Y4311670D02*
X1026695D01*
G54D36*
X1052055Y3924540D02*
X1055205D01*
X1052055Y4058400D02*
X1055205D01*
G54D37*
X950950Y3912925D02*
Y3918835D01*
Y4064495D02*
Y4070405D01*
G36*
X3113020Y550700D02*
X3109090Y546760D01*
X3069420D01*
X3065480Y550700D01*
Y609790D01*
X3069420Y613730D01*
X3109090D01*
X3113020Y609790D01*
Y595570D01*
X3109090Y591630D01*
X3100790D01*
X3096860Y587690D01*
Y572800D01*
X3100790Y568860D01*
X3109090D01*
X3113020Y564920D01*
Y550700D01*
G37*
G36*
X3181920D02*
Y564920D01*
X3185860Y568860D01*
X3194150D01*
X3198080Y572800D01*
Y587690D01*
X3194150Y591630D01*
X3185860D01*
X3181920Y595570D01*
Y609790D01*
X3185860Y613730D01*
X3225520D01*
X3229460Y609790D01*
Y550700D01*
X3225520Y546760D01*
X3185860D01*
X3181920Y550700D01*
G37*
G54D10*
X2492050Y814300D03*
X2565670D03*
X2639290D03*
Y740680D03*
X2565670D03*
X2492050D03*
Y667060D03*
X2565670D03*
X2639290D03*
G54D11*
X2413110Y1306150D02*
Y1312450D01*
Y1243160D02*
Y1249460D01*
X2413210Y1496980D02*
Y1503280D01*
Y1559970D02*
Y1566270D01*
G36*
X3306340Y2051710D02*
X3282210Y2071960D01*
X3306500Y2100910D01*
X3330630Y2080660D01*
X3306340Y2051710D01*
G37*
G36*
X3265850Y2003450D02*
X3241720Y2023700D01*
X3266010Y2052650D01*
X3290140Y2032400D01*
X3265850Y2003450D01*
G37*
G54D12*
X2876420Y2069850D02*
Y2262770D01*
X2691380Y2069850D02*
Y2262770D01*
G54D13*
X4106990Y326330D02*
X4130610D01*
X3996750D02*
X4020370D01*
X3996750Y255470D02*
X4020370D01*
X4106990D02*
X4130610D01*
G54D14*
X2938920Y1415410D02*
X3024280Y1438281D01*
X3044400Y1363190D01*
X2959041Y1340319D01*
X2938920Y1415410D01*
G54D15*
X2942112Y1415763D02*
X3029812D01*
X2953509Y1362837D02*
X3041209D01*
G54D16*
X2968692Y1419763D02*
X3025618D01*
X2996926Y1427329D02*
X3023591D01*
G54D15*
X2939533Y1415056D02*
X3023926Y1437669D01*
X3029865Y1415505D01*
G54D16*
X2943207Y1412935D02*
X3021805Y1433995D01*
X3026967Y1414728D01*
G54D17*
X2958628Y1370837D02*
X3034586D01*
X2955330Y1383145D02*
X3031288D01*
X2952032Y1395455D02*
X3027990D01*
X2948734Y1407763D02*
X3024692D01*
G54D15*
X2953456Y1363095D02*
X2939533Y1415056D01*
X3029865Y1415505D02*
X3043788Y1363544D01*
G54D17*
X2960217Y1364907D02*
X2948106Y1410107D01*
X3023103Y1413693D02*
X3035214Y1368493D01*
G54D16*
X2959730Y1351271D02*
X2986395D01*
X2957702Y1358837D02*
X3014629D01*
G54D15*
X2959394Y1340931D02*
X2953456Y1363095D01*
X3043788Y1363544D02*
X2959394Y1340931D01*
G54D16*
X2961516Y1344605D02*
X2956353Y1363872D01*
X3040113Y1365665D02*
X2961516Y1344605D01*
G54D18*
X3023219Y1436444D02*
X3028224Y1417763D01*
X2953500D02*
X3023219Y1436444D01*
X2960101Y1342156D02*
X2955096Y1360837D01*
X3029820D02*
X2960101Y1342156D01*
G54D19*
X2948500Y1377730D03*
X3034820Y1400870D03*
X2798835Y1512380D02*
X2818525D01*
G54D20*
X3679860Y255910D02*
X3684660D01*
X3723170D02*
X3727970D01*
X3679630Y295510D02*
X3684430D01*
X3722940D02*
X3727740D01*
X3679470Y338900D02*
X3684270D01*
X3722780D02*
X3727580D01*
X2342390Y1238360D02*
X2347190D01*
X2299080D02*
X2303880D01*
X2593440Y981250D02*
X2598240D01*
X2636750D02*
X2641550D01*
X2574690Y340090D02*
X2579490D01*
X2618000D02*
X2622800D01*
X2574690Y373550D02*
X2579490D01*
X2618000D02*
X2622800D01*
X2618000Y407020D02*
X2622800D01*
X2574690D02*
X2579490D01*
X2889740Y339130D02*
X2894540D01*
X2933050D02*
X2937850D01*
X2933940Y306620D02*
X2938740D01*
X2890630D02*
X2895430D01*
X2890630Y271310D02*
X2895430D01*
X2933940D02*
X2938740D01*
X2844370Y871580D02*
X2849170D01*
X2887680D02*
X2892480D01*
X2486110Y1138160D02*
X2490910D01*
X2442800D02*
X2447600D01*
X2313270Y1494640D02*
X2318070D01*
X2356580D02*
X2361380D01*
X3087330Y1677100D02*
X3092130D01*
X3044020D02*
X3048820D01*
X2671140Y1549930D02*
X2675940D01*
X2627840D02*
X2632640D01*
X2355620Y1962130D02*
X2360420D01*
X2398930D02*
X2403730D01*
X2456090Y1785950D02*
X2460890D01*
X2412780D02*
X2417580D01*
X2569770Y1916310D02*
X2574570D01*
X2526460D02*
X2531260D01*
X3075670Y2323350D02*
X3080470D01*
X3118980D02*
X3123780D01*
X3202640Y1970010D02*
X3207440D01*
X3159330D02*
X3164130D01*
X2269270Y1088120D02*
X2274070D01*
X2225960D02*
X2230760D01*
G54D14*
X2858268Y991144D02*
X2925592Y1030014D01*
X2934932Y1013836D01*
X2867608Y974966D01*
X2858268Y991144D01*
G54D15*
X2859554Y991327D02*
X2894976D01*
X2898224Y1013653D02*
X2933646D01*
G54D16*
X2867124Y982805D02*
X2874185D01*
X2864513Y987327D02*
X2882016D01*
G54D15*
X2867791Y975649D02*
X2858951Y990961D01*
X2896445Y992193D02*
X2867791Y975649D01*
G54D16*
X2868889Y979747D02*
X2863049Y989863D01*
X2894945Y994791D02*
X2868889Y979747D01*
X2872513Y995327D02*
X2895873D01*
X2884920Y1002490D02*
X2908280D01*
X2897327Y1009653D02*
X2920687D01*
G54D15*
X2858951Y990961D02*
X2896756Y1012787D01*
X2934249Y1014019D02*
X2896445Y992193D01*
G54D16*
X2863049Y989863D02*
X2898256Y1010189D01*
X2930151Y1015117D02*
X2894945Y994791D01*
X2911184Y1017653D02*
X2928687D01*
X2919015Y1022175D02*
X2926077D01*
G54D15*
X2896756Y1012787D02*
X2925409Y1029331D01*
X2934249Y1014019D01*
G54D16*
X2898256Y1010189D02*
X2924311Y1025232D01*
X2930151Y1015117D01*
G54D18*
X2868157Y977015D02*
X2861049Y989327D01*
X2889481D02*
X2868157Y977015D01*
X2925043Y1027964D02*
X2932151Y1015653D01*
X2903720D02*
X2925043Y1027964D01*
G54D19*
X2891680Y1011010D03*
X2901520Y993970D03*
G54D14*
X2739548Y948824D02*
X2806872Y987694D01*
X2816212Y971516D01*
X2748888Y932646D01*
X2739548Y948824D01*
G54D15*
X2740834Y949007D02*
X2776256D01*
X2779504Y971333D02*
X2814926D01*
G54D16*
X2748404Y940485D02*
X2755465D01*
X2745793Y945007D02*
X2763296D01*
G54D15*
X2749071Y933329D02*
X2740231Y948641D01*
X2777725Y949873D02*
X2749071Y933329D01*
G54D16*
X2750169Y937427D02*
X2744329Y947543D01*
X2776225Y952471D02*
X2750169Y937427D01*
X2753793Y953007D02*
X2777153D01*
X2766200Y960170D02*
X2789560D01*
X2778607Y967333D02*
X2801967D01*
G54D15*
X2740231Y948641D02*
X2778036Y970467D01*
X2815529Y971699D02*
X2777725Y949873D01*
G54D16*
X2744329Y947543D02*
X2779536Y967869D01*
X2811431Y972797D02*
X2776225Y952471D01*
X2792464Y975333D02*
X2809967D01*
X2800295Y979855D02*
X2807357D01*
G54D15*
X2778036Y970467D02*
X2806689Y987011D01*
X2815529Y971699D01*
G54D16*
X2779536Y967869D02*
X2805591Y982913D01*
X2811431Y972797D01*
G54D18*
X2749437Y934695D02*
X2742329Y947007D01*
X2770761D02*
X2749437Y934695D01*
X2806323Y985644D02*
X2813431Y973333D01*
X2785000D02*
X2806323Y985644D01*
G54D19*
X2772960Y968690D03*
X2782800Y951650D03*
G54D21*
X2361980Y1428480D02*
Y1454740D01*
X2324580Y1428480D02*
Y1454740D01*
X2287180Y1428480D02*
Y1454740D01*
Y1337285D02*
Y1364255D01*
X2361980Y1337285D02*
Y1364255D01*
G54D11*
X2295380Y1283990D02*
X2301680D01*
X2358370D02*
X2364670D01*
G54D22*
X2614880Y599135D02*
Y615685D01*
G54D23*
X2612330Y599350D02*
Y615470D01*
X2617430Y599350D02*
Y615470D01*
G54D22*
X2536140Y865675D02*
Y882225D01*
G54D23*
X2533590Y865890D02*
Y882010D01*
X2538690Y865890D02*
Y882010D01*
G54D22*
X2654250Y865675D02*
Y882225D01*
G54D23*
X2651700Y865890D02*
Y882010D01*
X2656800Y865890D02*
Y882010D01*
G54D22*
X2536140Y599135D02*
Y615685D01*
G54D23*
X2533590Y599350D02*
Y615470D01*
X2538690Y599350D02*
Y615470D01*
G54D22*
X2673940Y599135D02*
Y615685D01*
G54D23*
X2671390Y599350D02*
Y615470D01*
X2676490Y599350D02*
Y615470D01*
G54D22*
X2496770Y599135D02*
Y615685D01*
G54D23*
X2494220Y599350D02*
Y615470D01*
X2499320Y599350D02*
Y615470D01*
G54D22*
X2555830Y599135D02*
Y615685D01*
G54D23*
X2553280Y599350D02*
Y615470D01*
X2558380Y599350D02*
Y615470D01*
G54D22*
X2555830Y865675D02*
Y882225D01*
G54D23*
X2553280Y865890D02*
Y882010D01*
X2558380Y865890D02*
Y882010D01*
G54D22*
X2516460Y865675D02*
Y882225D01*
G54D23*
X2513910Y865890D02*
Y882010D01*
X2519010Y865890D02*
Y882010D01*
G54D22*
X2477090Y865675D02*
Y882225D01*
G54D23*
X2474540Y865890D02*
Y882010D01*
X2479640Y865890D02*
Y882010D01*
G54D22*
X2575510Y599135D02*
Y615685D01*
G54D23*
X2572960Y599350D02*
Y615470D01*
X2578060Y599350D02*
Y615470D01*
G54D22*
X2634570Y599135D02*
Y615685D01*
G54D23*
X2632020Y599350D02*
Y615470D01*
X2637120Y599350D02*
Y615470D01*
G54D22*
X2516460Y599135D02*
Y615685D01*
G54D23*
X2513910Y599350D02*
Y615470D01*
X2519010Y599350D02*
Y615470D01*
G54D22*
X2457400Y865675D02*
Y882225D01*
G54D23*
X2454850Y865890D02*
Y882010D01*
X2459950Y865890D02*
Y882010D01*
G54D22*
X2457400Y599135D02*
Y615685D01*
G54D23*
X2454850Y599350D02*
Y615470D01*
X2459950Y599350D02*
Y615470D01*
G54D22*
X2575510Y865675D02*
Y882225D01*
G54D23*
X2572960Y865890D02*
Y882010D01*
X2578060Y865890D02*
Y882010D01*
G54D22*
X2634570Y865675D02*
Y882225D01*
G54D23*
X2632020Y865890D02*
Y882010D01*
X2637120Y865890D02*
Y882010D01*
G54D22*
X2654250Y599135D02*
Y615685D01*
G54D23*
X2651700Y599350D02*
Y615470D01*
X2656800Y599350D02*
Y615470D01*
G54D22*
X2673940Y865675D02*
Y882225D01*
G54D23*
X2671390Y865890D02*
Y882010D01*
X2676490Y865890D02*
Y882010D01*
G54D22*
X2614880Y865675D02*
Y882225D01*
G54D23*
X2612330Y865890D02*
Y882010D01*
X2617430Y865890D02*
Y882010D01*
G54D22*
X2477090Y599135D02*
Y615685D01*
G54D23*
X2474540Y599350D02*
Y615470D01*
X2479640Y599350D02*
Y615470D01*
G54D22*
X2496770Y865675D02*
Y882225D01*
G54D23*
X2494220Y865890D02*
Y882010D01*
X2499320Y865890D02*
Y882010D01*
G54D22*
X2690665Y829260D02*
X2707215D01*
G54D23*
X2690880Y831810D02*
X2707000D01*
X2690880Y826710D02*
X2707000D01*
G54D22*
X2690665Y770210D02*
X2707215D01*
G54D23*
X2690880Y772760D02*
X2707000D01*
X2690880Y767660D02*
X2707000D01*
G54D22*
X2690665Y632410D02*
X2707215D01*
G54D23*
X2690880Y634960D02*
X2707000D01*
X2690880Y629860D02*
X2707000D01*
G54D22*
X2690665Y789890D02*
X2707215D01*
G54D23*
X2690880Y792440D02*
X2707000D01*
X2690880Y787340D02*
X2707000D01*
G54D22*
X2690665Y809580D02*
X2707215D01*
G54D23*
X2690880Y812130D02*
X2707000D01*
X2690880Y807030D02*
X2707000D01*
G54D22*
X2424125Y770210D02*
X2440675D01*
G54D23*
X2424340Y772760D02*
X2440460D01*
X2424340Y767660D02*
X2440460D01*
G54D22*
X2424125Y632410D02*
X2440675D01*
G54D23*
X2424340Y634960D02*
X2440460D01*
X2424340Y629860D02*
X2440460D01*
G54D22*
X2424125Y789890D02*
X2440675D01*
G54D23*
X2424340Y792440D02*
X2440460D01*
X2424340Y787340D02*
X2440460D01*
G54D22*
X2690665Y691470D02*
X2707215D01*
G54D23*
X2690880Y694020D02*
X2707000D01*
X2690880Y688920D02*
X2707000D01*
G54D22*
X2424125Y809580D02*
X2440675D01*
G54D23*
X2424340Y812130D02*
X2440460D01*
X2424340Y807030D02*
X2440460D01*
G54D22*
X2690665Y671780D02*
X2707215D01*
G54D23*
X2690880Y674330D02*
X2707000D01*
X2690880Y669230D02*
X2707000D01*
G54D22*
X2424125Y730840D02*
X2440675D01*
G54D23*
X2424340Y733390D02*
X2440460D01*
X2424340Y728290D02*
X2440460D01*
G54D22*
X2424125Y711150D02*
X2440675D01*
G54D23*
X2424340Y713700D02*
X2440460D01*
X2424340Y708600D02*
X2440460D01*
G54D22*
X2424125Y691470D02*
X2440675D01*
G54D23*
X2424340Y694020D02*
X2440460D01*
X2424340Y688920D02*
X2440460D01*
G54D22*
X2424125Y671780D02*
X2440675D01*
G54D23*
X2424340Y674330D02*
X2440460D01*
X2424340Y669230D02*
X2440460D01*
G54D22*
X2690665Y711150D02*
X2707215D01*
G54D23*
X2690880Y713700D02*
X2707000D01*
X2690880Y708600D02*
X2707000D01*
G54D22*
X2690665Y730840D02*
X2707215D01*
G54D23*
X2690880Y733390D02*
X2707000D01*
X2690880Y728290D02*
X2707000D01*
G54D22*
X2424125Y829260D02*
X2440675D01*
G54D23*
X2424340Y831810D02*
X2440460D01*
X2424340Y826710D02*
X2440460D01*
G54D22*
X2690665Y652100D02*
X2707215D01*
G54D23*
X2690880Y654650D02*
X2707000D01*
X2690880Y649550D02*
X2707000D01*
G54D22*
X2690665Y750520D02*
X2707215D01*
G54D23*
X2690880Y753070D02*
X2707000D01*
X2690880Y747970D02*
X2707000D01*
G54D22*
X2424125Y848950D02*
X2440675D01*
G54D23*
X2424340Y851500D02*
X2440460D01*
X2424340Y846400D02*
X2440460D01*
G54D22*
X2424125Y750520D02*
X2440675D01*
G54D23*
X2424340Y753070D02*
X2440460D01*
X2424340Y747970D02*
X2440460D01*
G54D22*
X2690665Y848950D02*
X2707215D01*
G54D23*
X2690880Y851500D02*
X2707000D01*
X2690880Y846400D02*
X2707000D01*
G54D22*
X2424125Y652100D02*
X2440675D01*
G54D23*
X2424340Y654650D02*
X2440460D01*
X2424340Y649550D02*
X2440460D01*
G54D22*
X2595200Y599135D02*
Y615685D01*
G54D23*
X2592650Y599350D02*
Y615470D01*
X2597750Y599350D02*
Y615470D01*
G54D22*
X2595200Y865675D02*
Y882225D01*
G54D23*
X2592650Y865890D02*
Y882010D01*
X2597750Y865890D02*
Y882010D01*
G36*
X2565877Y740181D02*
X2565463D01*
X2565171Y740473D01*
Y740887D01*
X2565463Y741179D01*
X2565877D01*
X2566169Y740887D01*
Y740473D01*
X2565877Y740181D01*
G37*
G54D24*
X2507810Y937120D03*
G54D25*
X2477680Y920800D03*
X2442250Y915880D03*
G54D20*
X2559770Y978760D02*
Y983560D01*
Y1022060D02*
Y1026860D01*
X2888110Y435130D02*
Y439930D01*
Y391820D02*
Y396620D01*
X2363510Y646740D02*
Y651540D01*
Y603440D02*
Y608240D01*
X2654250Y558160D02*
Y562960D01*
Y514850D02*
Y519650D01*
X3063310Y793400D02*
Y798200D01*
Y750090D02*
Y754890D01*
X2215870Y1165440D02*
Y1170240D01*
Y1122140D02*
Y1126940D01*
X2196220Y1397480D02*
Y1402280D01*
Y1354170D02*
Y1358970D01*
X3260160Y588670D02*
Y593470D01*
Y545370D02*
Y550170D01*
X2519020Y1976470D02*
Y1981270D01*
Y2019770D02*
Y2024570D01*
X3277880Y2153630D02*
Y2158430D01*
Y2196940D02*
Y2201740D01*
X2369720Y1713610D02*
Y1718410D01*
Y1756920D02*
Y1761720D01*
X3253270Y2291430D02*
Y2296230D01*
Y2248120D02*
Y2252920D01*
X3243220Y2196940D02*
Y2201740D01*
Y2153630D02*
Y2158430D01*
X2324140Y1096550D02*
Y1101350D01*
Y1053240D02*
Y1058040D01*
X2357930Y1052350D02*
Y1057150D01*
Y1095660D02*
Y1100460D01*
G54D26*
X3089250Y570535D02*
Y589965D01*
X3205690Y570535D02*
Y589965D01*
G54D27*
X2789490Y796780D02*
X2830830D01*
X2789490Y771190D02*
X2830830D01*
X2789490Y745600D02*
X2830830D01*
X2789490Y720010D02*
X2830830D01*
X2986340D02*
X3027680D01*
X2986340Y745600D02*
X3027680D01*
X2986340Y771190D02*
X3027680D01*
X2986340Y796780D02*
X3027680D01*
G54D28*
X2498220Y1075325D02*
Y1083195D01*
Y976905D02*
Y984775D01*
X2423410Y1075325D02*
Y1083195D01*
Y976905D02*
Y984775D01*
G54D29*
X2502990Y1550130D02*
Y1555250D01*
X2577790Y1550130D02*
Y1555250D01*
X2502990Y1631990D02*
Y1637110D01*
X2577790Y1631990D02*
Y1637110D01*
X2866420Y1918750D02*
Y1923870D01*
X2941220Y1918750D02*
Y1923870D01*
G54D30*
X2378260Y1842060D02*
X2390080D01*
X2378260Y1879460D02*
X2390080D01*
X2378260Y1916860D02*
X2390080D01*
X2474720D02*
X2486540D01*
X2474720Y1879460D02*
X2486540D01*
X2474720Y1842060D02*
X2486540D01*
G54D31*
X2524140Y538020D03*
X2545590Y500520D03*
G54D32*
X2593865Y294290D02*
X2601735D01*
X2908785Y227880D02*
X2916655D01*
X2818235Y581230D02*
X2826105D01*
X2844205Y629940D02*
X2852075D01*
X2894175Y667840D02*
X2902045D01*
G54D33*
X2144020Y1092210D03*
G54D30*
X3205040Y436950D02*
X3232600D01*
X3205040Y486950D02*
X3232600D01*
X2929450D02*
X2957010D01*
X2929450Y436950D02*
X2957010D01*
G54D19*
X2971615Y1106820D02*
X2991305D01*
X2998345Y1241980D02*
X3018035D01*
G54D14*
X3256581Y1951229D02*
X3311551Y2006200D01*
X3324760Y1992991D01*
X3269789Y1938021D01*
X3256581Y1951229D01*
G54D15*
X3257266D02*
X3282313D01*
X3299027Y1992991D02*
X3324075D01*
G54D18*
X3267312Y1942619D02*
X3272266D01*
X3264007Y1945924D02*
X3275571D01*
X3260702Y1949229D02*
X3278877D01*
G54D15*
X3269789Y1938728D02*
X3257288Y1951229D01*
X3282998Y1951936D02*
X3269789Y1938728D01*
G54D18*
Y1940142D02*
X3258702Y1951229D01*
X3282291Y1952643D02*
X3269789Y1940142D01*
G54D17*
X3275187Y1959229D02*
X3280391D01*
X3288068Y1972110D02*
X3293272D01*
X3300949Y1984991D02*
X3306153D01*
G54D15*
X3257288Y1951229D02*
X3298342Y1992284D01*
X3324052Y1992991D02*
X3282998Y1951936D01*
G54D17*
X3267187Y1951229D02*
X3303292Y1987334D01*
X3314153Y1992991D02*
X3278048Y1956886D01*
G54D18*
X3302464Y1994991D02*
X3320638D01*
X3305769Y1998296D02*
X3317333D01*
X3309074Y2001601D02*
X3314028D01*
G54D15*
X3298342Y1992284D02*
X3311551Y2005492D01*
X3324052Y1992991D01*
G54D18*
X3299049Y1991577D02*
X3311551Y2004078D01*
X3322638Y1992991D01*
G54D19*
X3297630Y1965150D03*
X3283710Y1979070D03*
G54D14*
X3338260Y2043677D02*
X3388230Y2103230D01*
X3402540Y2091223D01*
X3352570Y2031670D01*
X3338260Y2043677D01*
G54D15*
X3339087Y2043616D02*
X3361961D01*
X3378839Y2091284D02*
X3401713D01*
G54D18*
X3349923Y2035849D02*
X3354118D01*
X3346487Y2038732D02*
X3356538D01*
X3343051Y2041616D02*
X3358957D01*
G54D15*
X3352508Y2032375D02*
X3338965Y2043739D01*
X3362480Y2044259D02*
X3352508Y2032375D01*
G54D18*
X3352385Y2033783D02*
X3340373Y2043862D01*
X3361714Y2044901D02*
X3352385Y2033783D01*
G54D17*
X3354712Y2051616D02*
X3359516D01*
X3363569Y2062172D02*
X3368373D01*
X3372427Y2072728D02*
X3377231D01*
X3381285Y2083284D02*
X3386088D01*
G54D15*
X3338965Y2043739D02*
X3378320Y2090641D01*
X3401836Y2091161D02*
X3362480Y2044259D01*
G54D17*
X3348826Y2044602D02*
X3383682Y2086142D01*
X3391974Y2090298D02*
X3357118Y2048758D01*
G54D18*
X3381843Y2093284D02*
X3397750D01*
X3384263Y2096168D02*
X3394313D01*
X3386682Y2099051D02*
X3390877D01*
G54D15*
X3378320Y2090641D02*
X3388292Y2102525D01*
X3401836Y2091161D01*
G54D18*
X3379086Y2089999D02*
X3388415Y2101117D01*
X3400427Y2091038D01*
G54D19*
X3377940Y2061120D03*
X3362860Y2073780D03*
G54D14*
X2908364Y1548653D02*
X2923666Y1559368D01*
X2968256Y1495687D01*
X2952954Y1484972D01*
X2908364Y1548653D01*
G54D15*
X2909384Y1548776D02*
X2930491D01*
X2946129Y1495564D02*
X2967236D01*
G54D17*
X2949092Y1503564D02*
X2953584D01*
X2940407Y1515968D02*
X2944899D01*
X2931721Y1528372D02*
X2936214D01*
X2923036Y1540776D02*
X2927528D01*
G54D15*
X2945747Y1496138D02*
X2909061Y1548530D01*
X2930874Y1548202D02*
X2967560Y1495810D01*
G54D17*
X2951481Y1500153D02*
X2918810Y1546811D01*
X2925140Y1544187D02*
X2957810Y1497529D01*
G54D18*
X2914011Y1550776D02*
X2927851D01*
X2919215Y1554420D02*
X2925299D01*
G54D15*
X2909061Y1548530D02*
X2923543Y1558671D01*
X2930874Y1548202D01*
G54D18*
X2910453Y1548285D02*
X2923298Y1557278D01*
X2930055Y1547629D01*
X2951321Y1489920D02*
X2957405D01*
X2948769Y1493564D02*
X2962609D01*
G54D15*
X2953077Y1485669D02*
X2945747Y1496138D01*
X2967560Y1495810D02*
X2953077Y1485669D01*
G54D18*
X2953323Y1487062D02*
X2946566Y1496711D01*
X2966167Y1496055D02*
X2953323Y1487062D01*
G54D19*
X2946370Y1527810D03*
X2930250Y1516530D03*
G54D29*
X2568620Y1989690D02*
X2573740D01*
X2568620Y2064500D02*
X2573740D01*
G54D28*
X2538700Y1834180D02*
X2641060D01*
X2538700Y1716070D02*
X2641060D01*
G54D34*
X3021420Y2008470D02*
Y2066110D01*
X3071420Y2008470D02*
Y2066110D01*
X3121420Y2008470D02*
Y2066110D01*
X3171420Y2008470D02*
Y2066110D01*
X3021420Y2226500D02*
Y2284140D01*
X3071420Y2226500D02*
Y2284140D01*
X3121420Y2226500D02*
Y2284140D01*
X3171420Y2226500D02*
Y2284140D01*
G54D35*
X3080675Y2146310D02*
X3112165D01*
G54D36*
X3137525Y1759180D02*
X3140675D01*
X3137525Y1893040D02*
X3140675D01*
G54D37*
X3036420Y1747565D02*
Y1753475D01*
Y1899135D02*
Y1905045D01*
G36*
X3113020Y2716060D02*
X3109090Y2712120D01*
X3069420D01*
X3065480Y2716060D01*
Y2775150D01*
X3069420Y2779090D01*
X3109090D01*
X3113020Y2775150D01*
Y2760930D01*
X3109090Y2756990D01*
X3100790D01*
X3096860Y2753050D01*
Y2738160D01*
X3100790Y2734220D01*
X3109090D01*
X3113020Y2730280D01*
Y2716060D01*
G37*
G36*
X3181920D02*
Y2730280D01*
X3185860Y2734220D01*
X3194150D01*
X3198080Y2738160D01*
Y2753050D01*
X3194150Y2756990D01*
X3185860D01*
X3181920Y2760930D01*
Y2775150D01*
X3185860Y2779090D01*
X3225520D01*
X3229460Y2775150D01*
Y2716060D01*
X3225520Y2712120D01*
X3185860D01*
X3181920Y2716060D01*
G37*
G54D10*
X2492050Y2979660D03*
X2565670D03*
X2639290D03*
Y2906040D03*
X2565670D03*
X2492050D03*
Y2832420D03*
X2565670D03*
X2639290D03*
G54D11*
X2413110Y3471510D02*
Y3477810D01*
Y3408520D02*
Y3414820D01*
X2413210Y3662340D02*
Y3668640D01*
Y3725330D02*
Y3731630D01*
G36*
X3306340Y4217070D02*
X3282210Y4237320D01*
X3306500Y4266270D01*
X3330630Y4246020D01*
X3306340Y4217070D01*
G37*
G36*
X3265850Y4168810D02*
X3241720Y4189060D01*
X3266010Y4218010D01*
X3290140Y4197760D01*
X3265850Y4168810D01*
G37*
G54D12*
X2876420Y4235210D02*
Y4428130D01*
X2691380Y4235210D02*
Y4428130D01*
G54D13*
X4106990Y2491690D02*
X4130610D01*
X3996750D02*
X4020370D01*
X3996750Y2420830D02*
X4020370D01*
X4106990D02*
X4130610D01*
G54D14*
X2938920Y3580770D02*
X3024280Y3603641D01*
X3044400Y3528550D01*
X2959041Y3505679D01*
X2938920Y3580770D01*
G54D15*
X2942112Y3581124D02*
X3029812D01*
X2953509Y3528197D02*
X3041209D01*
G54D16*
X2968692Y3585124D02*
X3025618D01*
X2996926Y3592689D02*
X3023591D01*
G54D15*
X2939533Y3580416D02*
X3023926Y3603029D01*
X3029865Y3580865D01*
G54D16*
X2943207Y3578295D02*
X3021805Y3599355D01*
X3026967Y3580088D01*
G54D17*
X2958628Y3536197D02*
X3034586D01*
X2955330Y3548506D02*
X3031288D01*
X2952032Y3560815D02*
X3027990D01*
X2948734Y3573124D02*
X3024692D01*
G54D15*
X2953456Y3528455D02*
X2939533Y3580416D01*
X3029865Y3580865D02*
X3043788Y3528904D01*
G54D17*
X2960217Y3530267D02*
X2948106Y3575467D01*
X3023103Y3579053D02*
X3035214Y3533853D01*
G54D16*
X2959730Y3516631D02*
X2986395D01*
X2957702Y3524197D02*
X3014629D01*
G54D15*
X2959394Y3506291D02*
X2953456Y3528455D01*
X3043788Y3528904D02*
X2959394Y3506291D01*
G54D16*
X2961516Y3509965D02*
X2956353Y3529232D01*
X3040113Y3531025D02*
X2961516Y3509965D01*
G54D18*
X3023219Y3601804D02*
X3028224Y3583124D01*
X2953500D02*
X3023219Y3601804D01*
X2960101Y3507516D02*
X2955096Y3526197D01*
X3029820D02*
X2960101Y3507516D01*
G54D19*
X2948500Y3543090D03*
X3034820Y3566230D03*
X2798835Y3677740D02*
X2818525D01*
G54D20*
X3679860Y2421270D02*
X3684660D01*
X3723170D02*
X3727970D01*
X3679630Y2460870D02*
X3684430D01*
X3722940D02*
X3727740D01*
X3679470Y2504260D02*
X3684270D01*
X3722780D02*
X3727580D01*
X2342390Y3403720D02*
X2347190D01*
X2299080D02*
X2303880D01*
X2593440Y3146610D02*
X2598240D01*
X2636750D02*
X2641550D01*
X2574690Y2505450D02*
X2579490D01*
X2618000D02*
X2622800D01*
X2574690Y2538910D02*
X2579490D01*
X2618000D02*
X2622800D01*
X2618000Y2572380D02*
X2622800D01*
X2574690D02*
X2579490D01*
X2889740Y2504490D02*
X2894540D01*
X2933050D02*
X2937850D01*
X2933940Y2471980D02*
X2938740D01*
X2890630D02*
X2895430D01*
X2890630Y2436670D02*
X2895430D01*
X2933940D02*
X2938740D01*
X2844370Y3036940D02*
X2849170D01*
X2887680D02*
X2892480D01*
X2486110Y3303520D02*
X2490910D01*
X2442800D02*
X2447600D01*
X2313270Y3660000D02*
X2318070D01*
X2356580D02*
X2361380D01*
X3087330Y3842460D02*
X3092130D01*
X3044020D02*
X3048820D01*
X2671140Y3715290D02*
X2675940D01*
X2627840D02*
X2632640D01*
X2355620Y4127490D02*
X2360420D01*
X2398930D02*
X2403730D01*
X2456090Y3951310D02*
X2460890D01*
X2412780D02*
X2417580D01*
X2569770Y4081670D02*
X2574570D01*
X2526460D02*
X2531260D01*
X3075670Y4488710D02*
X3080470D01*
X3118980D02*
X3123780D01*
X3202640Y4135370D02*
X3207440D01*
X3159330D02*
X3164130D01*
X2269270Y3253480D02*
X2274070D01*
X2225960D02*
X2230760D01*
G54D14*
X2858268Y3156504D02*
X2925592Y3195374D01*
X2934932Y3179196D01*
X2867608Y3140326D01*
X2858268Y3156504D01*
G54D15*
X2859554Y3156687D02*
X2894976D01*
X2898224Y3179013D02*
X2933646D01*
G54D16*
X2867124Y3148165D02*
X2874185D01*
X2864513Y3152687D02*
X2882016D01*
G54D15*
X2867791Y3141009D02*
X2858951Y3156321D01*
X2896445Y3157553D02*
X2867791Y3141009D01*
G54D16*
X2868889Y3145107D02*
X2863049Y3155223D01*
X2894945Y3160151D02*
X2868889Y3145107D01*
X2872513Y3160687D02*
X2895873D01*
X2884920Y3167850D02*
X2908280D01*
X2897327Y3175013D02*
X2920687D01*
G54D15*
X2858951Y3156321D02*
X2896756Y3178147D01*
X2934249Y3179379D02*
X2896445Y3157553D01*
G54D16*
X2863049Y3155223D02*
X2898256Y3175549D01*
X2930151Y3180477D02*
X2894945Y3160151D01*
X2911184Y3183013D02*
X2928687D01*
X2919015Y3187535D02*
X2926077D01*
G54D15*
X2896756Y3178147D02*
X2925409Y3194691D01*
X2934249Y3179379D01*
G54D16*
X2898256Y3175549D02*
X2924311Y3190593D01*
X2930151Y3180477D01*
G54D18*
X2868157Y3142375D02*
X2861049Y3154687D01*
X2889481D02*
X2868157Y3142375D01*
X2925043Y3193325D02*
X2932151Y3181013D01*
X2903720D02*
X2925043Y3193325D01*
G54D19*
X2891680Y3176370D03*
X2901520Y3159330D03*
G54D14*
X2739548Y3114184D02*
X2806872Y3153054D01*
X2816212Y3136876D01*
X2748888Y3098006D01*
X2739548Y3114184D01*
G54D15*
X2740834Y3114367D02*
X2776256D01*
X2779504Y3136693D02*
X2814926D01*
G54D16*
X2748404Y3105845D02*
X2755465D01*
X2745793Y3110367D02*
X2763296D01*
G54D15*
X2749071Y3098689D02*
X2740231Y3114001D01*
X2777725Y3115233D02*
X2749071Y3098689D01*
G54D16*
X2750169Y3102788D02*
X2744329Y3112903D01*
X2776225Y3117831D02*
X2750169Y3102788D01*
X2753793Y3118367D02*
X2777153D01*
X2766200Y3125530D02*
X2789560D01*
X2778607Y3132693D02*
X2801967D01*
G54D15*
X2740231Y3114001D02*
X2778036Y3135827D01*
X2815529Y3137059D02*
X2777725Y3115233D01*
G54D16*
X2744329Y3112903D02*
X2779536Y3133229D01*
X2811431Y3138157D02*
X2776225Y3117831D01*
X2792464Y3140693D02*
X2809967D01*
X2800295Y3145215D02*
X2807357D01*
G54D15*
X2778036Y3135827D02*
X2806689Y3152371D01*
X2815529Y3137059D01*
G54D16*
X2779536Y3133229D02*
X2805591Y3148273D01*
X2811431Y3138157D01*
G54D18*
X2749437Y3100056D02*
X2742329Y3112367D01*
X2770761D02*
X2749437Y3100056D01*
X2806323Y3151005D02*
X2813431Y3138693D01*
X2785000D02*
X2806323Y3151005D01*
G54D19*
X2772960Y3134050D03*
X2782800Y3117010D03*
G54D21*
X2361980Y3593840D02*
Y3620100D01*
X2324580Y3593840D02*
Y3620100D01*
X2287180Y3593840D02*
Y3620100D01*
Y3502645D02*
Y3529615D01*
X2361980Y3502645D02*
Y3529615D01*
G54D11*
X2295380Y3449350D02*
X2301680D01*
X2358370D02*
X2364670D01*
G54D22*
X2614880Y2764495D02*
Y2781045D01*
G54D23*
X2612330Y2764710D02*
Y2780830D01*
X2617430Y2764710D02*
Y2780830D01*
G54D22*
X2536140Y3031035D02*
Y3047585D01*
G54D23*
X2533590Y3031250D02*
Y3047370D01*
X2538690Y3031250D02*
Y3047370D01*
G54D22*
X2654250Y3031035D02*
Y3047585D01*
G54D23*
X2651700Y3031250D02*
Y3047370D01*
X2656800Y3031250D02*
Y3047370D01*
G54D22*
X2536140Y2764495D02*
Y2781045D01*
G54D23*
X2533590Y2764710D02*
Y2780830D01*
X2538690Y2764710D02*
Y2780830D01*
G54D22*
X2673940Y2764495D02*
Y2781045D01*
G54D23*
X2671390Y2764710D02*
Y2780830D01*
X2676490Y2764710D02*
Y2780830D01*
G54D22*
X2496770Y2764495D02*
Y2781045D01*
G54D23*
X2494220Y2764710D02*
Y2780830D01*
X2499320Y2764710D02*
Y2780830D01*
G54D22*
X2555830Y2764495D02*
Y2781045D01*
G54D23*
X2553280Y2764710D02*
Y2780830D01*
X2558380Y2764710D02*
Y2780830D01*
G54D22*
X2555830Y3031035D02*
Y3047585D01*
G54D23*
X2553280Y3031250D02*
Y3047370D01*
X2558380Y3031250D02*
Y3047370D01*
G54D22*
X2516460Y3031035D02*
Y3047585D01*
G54D23*
X2513910Y3031250D02*
Y3047370D01*
X2519010Y3031250D02*
Y3047370D01*
G54D22*
X2477090Y3031035D02*
Y3047585D01*
G54D23*
X2474540Y3031250D02*
Y3047370D01*
X2479640Y3031250D02*
Y3047370D01*
G54D22*
X2575510Y2764495D02*
Y2781045D01*
G54D23*
X2572960Y2764710D02*
Y2780830D01*
X2578060Y2764710D02*
Y2780830D01*
G54D22*
X2634570Y2764495D02*
Y2781045D01*
G54D23*
X2632020Y2764710D02*
Y2780830D01*
X2637120Y2764710D02*
Y2780830D01*
G54D22*
X2516460Y2764495D02*
Y2781045D01*
G54D23*
X2513910Y2764710D02*
Y2780830D01*
X2519010Y2764710D02*
Y2780830D01*
G54D22*
X2457400Y3031035D02*
Y3047585D01*
G54D23*
X2454850Y3031250D02*
Y3047370D01*
X2459950Y3031250D02*
Y3047370D01*
G54D22*
X2457400Y2764495D02*
Y2781045D01*
G54D23*
X2454850Y2764710D02*
Y2780830D01*
X2459950Y2764710D02*
Y2780830D01*
G54D22*
X2575510Y3031035D02*
Y3047585D01*
G54D23*
X2572960Y3031250D02*
Y3047370D01*
X2578060Y3031250D02*
Y3047370D01*
G54D22*
X2634570Y3031035D02*
Y3047585D01*
G54D23*
X2632020Y3031250D02*
Y3047370D01*
X2637120Y3031250D02*
Y3047370D01*
G54D22*
X2654250Y2764495D02*
Y2781045D01*
G54D23*
X2651700Y2764710D02*
Y2780830D01*
X2656800Y2764710D02*
Y2780830D01*
G54D22*
X2673940Y3031035D02*
Y3047585D01*
G54D23*
X2671390Y3031250D02*
Y3047370D01*
X2676490Y3031250D02*
Y3047370D01*
G54D22*
X2614880Y3031035D02*
Y3047585D01*
G54D23*
X2612330Y3031250D02*
Y3047370D01*
X2617430Y3031250D02*
Y3047370D01*
G54D22*
X2477090Y2764495D02*
Y2781045D01*
G54D23*
X2474540Y2764710D02*
Y2780830D01*
X2479640Y2764710D02*
Y2780830D01*
G54D22*
X2496770Y3031035D02*
Y3047585D01*
G54D23*
X2494220Y3031250D02*
Y3047370D01*
X2499320Y3031250D02*
Y3047370D01*
G54D22*
X2690665Y2994620D02*
X2707215D01*
G54D23*
X2690880Y2997170D02*
X2707000D01*
X2690880Y2992070D02*
X2707000D01*
G54D22*
X2690665Y2935570D02*
X2707215D01*
G54D23*
X2690880Y2938120D02*
X2707000D01*
X2690880Y2933020D02*
X2707000D01*
G54D22*
X2690665Y2797770D02*
X2707215D01*
G54D23*
X2690880Y2800320D02*
X2707000D01*
X2690880Y2795220D02*
X2707000D01*
G54D22*
X2690665Y2955250D02*
X2707215D01*
G54D23*
X2690880Y2957800D02*
X2707000D01*
X2690880Y2952700D02*
X2707000D01*
G54D22*
X2690665Y2974940D02*
X2707215D01*
G54D23*
X2690880Y2977490D02*
X2707000D01*
X2690880Y2972390D02*
X2707000D01*
G54D22*
X2424125Y2935570D02*
X2440675D01*
G54D23*
X2424340Y2938120D02*
X2440460D01*
X2424340Y2933020D02*
X2440460D01*
G54D22*
X2424125Y2797770D02*
X2440675D01*
G54D23*
X2424340Y2800320D02*
X2440460D01*
X2424340Y2795220D02*
X2440460D01*
G54D22*
X2424125Y2955250D02*
X2440675D01*
G54D23*
X2424340Y2957800D02*
X2440460D01*
X2424340Y2952700D02*
X2440460D01*
G54D22*
X2690665Y2856830D02*
X2707215D01*
G54D23*
X2690880Y2859380D02*
X2707000D01*
X2690880Y2854280D02*
X2707000D01*
G54D22*
X2424125Y2974940D02*
X2440675D01*
G54D23*
X2424340Y2977490D02*
X2440460D01*
X2424340Y2972390D02*
X2440460D01*
G54D22*
X2690665Y2837140D02*
X2707215D01*
G54D23*
X2690880Y2839690D02*
X2707000D01*
X2690880Y2834590D02*
X2707000D01*
G54D22*
X2424125Y2896200D02*
X2440675D01*
G54D23*
X2424340Y2898750D02*
X2440460D01*
X2424340Y2893650D02*
X2440460D01*
G54D22*
X2424125Y2876510D02*
X2440675D01*
G54D23*
X2424340Y2879060D02*
X2440460D01*
X2424340Y2873960D02*
X2440460D01*
G54D22*
X2424125Y2856830D02*
X2440675D01*
G54D23*
X2424340Y2859380D02*
X2440460D01*
X2424340Y2854280D02*
X2440460D01*
G54D22*
X2424125Y2837140D02*
X2440675D01*
G54D23*
X2424340Y2839690D02*
X2440460D01*
X2424340Y2834590D02*
X2440460D01*
G54D22*
X2690665Y2876510D02*
X2707215D01*
G54D23*
X2690880Y2879060D02*
X2707000D01*
X2690880Y2873960D02*
X2707000D01*
G54D22*
X2690665Y2896200D02*
X2707215D01*
G54D23*
X2690880Y2898750D02*
X2707000D01*
X2690880Y2893650D02*
X2707000D01*
G54D22*
X2424125Y2994620D02*
X2440675D01*
G54D23*
X2424340Y2997170D02*
X2440460D01*
X2424340Y2992070D02*
X2440460D01*
G54D22*
X2690665Y2817460D02*
X2707215D01*
G54D23*
X2690880Y2820010D02*
X2707000D01*
X2690880Y2814910D02*
X2707000D01*
G54D22*
X2690665Y2915880D02*
X2707215D01*
G54D23*
X2690880Y2918430D02*
X2707000D01*
X2690880Y2913330D02*
X2707000D01*
G54D22*
X2424125Y3014310D02*
X2440675D01*
G54D23*
X2424340Y3016860D02*
X2440460D01*
X2424340Y3011760D02*
X2440460D01*
G54D22*
X2424125Y2915880D02*
X2440675D01*
G54D23*
X2424340Y2918430D02*
X2440460D01*
X2424340Y2913330D02*
X2440460D01*
G54D22*
X2690665Y3014310D02*
X2707215D01*
G54D23*
X2690880Y3016860D02*
X2707000D01*
X2690880Y3011760D02*
X2707000D01*
G54D22*
X2424125Y2817460D02*
X2440675D01*
G54D23*
X2424340Y2820010D02*
X2440460D01*
X2424340Y2814910D02*
X2440460D01*
G54D22*
X2595200Y2764495D02*
Y2781045D01*
G54D23*
X2592650Y2764710D02*
Y2780830D01*
X2597750Y2764710D02*
Y2780830D01*
G54D22*
X2595200Y3031035D02*
Y3047585D01*
G54D23*
X2592650Y3031250D02*
Y3047370D01*
X2597750Y3031250D02*
Y3047370D01*
G36*
X2565877Y2905541D02*
X2565463D01*
X2565171Y2905833D01*
Y2906247D01*
X2565463Y2906539D01*
X2565877D01*
X2566169Y2906247D01*
Y2905833D01*
X2565877Y2905541D01*
G37*
G54D24*
X2507810Y3102480D03*
G54D25*
X2477680Y3086160D03*
X2442250Y3081240D03*
G54D20*
X2559770Y3144120D02*
Y3148920D01*
Y3187420D02*
Y3192220D01*
X2888110Y2600490D02*
Y2605290D01*
Y2557180D02*
Y2561980D01*
X2363510Y2812100D02*
Y2816900D01*
Y2768800D02*
Y2773600D01*
X2654250Y2723520D02*
Y2728320D01*
Y2680210D02*
Y2685010D01*
X3063310Y2958760D02*
Y2963560D01*
Y2915450D02*
Y2920250D01*
X2215870Y3330800D02*
Y3335600D01*
Y3287500D02*
Y3292300D01*
X2196220Y3562840D02*
Y3567640D01*
Y3519530D02*
Y3524330D01*
X3260160Y2754030D02*
Y2758830D01*
Y2710730D02*
Y2715530D01*
X2519020Y4141830D02*
Y4146630D01*
Y4185130D02*
Y4189930D01*
X3277880Y4318990D02*
Y4323790D01*
Y4362300D02*
Y4367100D01*
X2369720Y3878970D02*
Y3883770D01*
Y3922280D02*
Y3927080D01*
X3253270Y4456790D02*
Y4461590D01*
Y4413480D02*
Y4418280D01*
X3243220Y4362300D02*
Y4367100D01*
Y4318990D02*
Y4323790D01*
X2324140Y3261910D02*
Y3266710D01*
Y3218600D02*
Y3223400D01*
X2357930Y3217710D02*
Y3222510D01*
Y3261020D02*
Y3265820D01*
G54D26*
X3089250Y2735895D02*
Y2755325D01*
X3205690Y2735895D02*
Y2755325D01*
G54D27*
X2789490Y2962140D02*
X2830830D01*
X2789490Y2936550D02*
X2830830D01*
X2789490Y2910960D02*
X2830830D01*
X2789490Y2885370D02*
X2830830D01*
X2986340D02*
X3027680D01*
X2986340Y2910960D02*
X3027680D01*
X2986340Y2936550D02*
X3027680D01*
X2986340Y2962140D02*
X3027680D01*
G54D28*
X2498220Y3240685D02*
Y3248555D01*
Y3142265D02*
Y3150135D01*
X2423410Y3240685D02*
Y3248555D01*
Y3142265D02*
Y3150135D01*
G54D29*
X2502990Y3715490D02*
Y3720610D01*
X2577790Y3715490D02*
Y3720610D01*
X2502990Y3797350D02*
Y3802470D01*
X2577790Y3797350D02*
Y3802470D01*
X2866420Y4084110D02*
Y4089230D01*
X2941220Y4084110D02*
Y4089230D01*
G54D30*
X2378260Y4007420D02*
X2390080D01*
X2378260Y4044820D02*
X2390080D01*
X2378260Y4082220D02*
X2390080D01*
X2474720D02*
X2486540D01*
X2474720Y4044820D02*
X2486540D01*
X2474720Y4007420D02*
X2486540D01*
G54D31*
X2524140Y2703380D03*
X2545590Y2665880D03*
G54D32*
X2593865Y2459650D02*
X2601735D01*
X2908785Y2393240D02*
X2916655D01*
X2818235Y2746590D02*
X2826105D01*
X2844205Y2795300D02*
X2852075D01*
X2894175Y2833200D02*
X2902045D01*
G54D33*
X2144020Y3257570D03*
G54D30*
X3205040Y2602310D02*
X3232600D01*
X3205040Y2652310D02*
X3232600D01*
X2929450D02*
X2957010D01*
X2929450Y2602310D02*
X2957010D01*
G54D19*
X2971615Y3272180D02*
X2991305D01*
X2998345Y3407340D02*
X3018035D01*
G54D14*
X3256581Y4116589D02*
X3311551Y4171560D01*
X3324760Y4158351D01*
X3269789Y4103381D01*
X3256581Y4116589D01*
G54D15*
X3257266D02*
X3282313D01*
X3299027Y4158351D02*
X3324075D01*
G54D18*
X3267312Y4107979D02*
X3272266D01*
X3264007Y4111284D02*
X3275571D01*
X3260702Y4114589D02*
X3278877D01*
G54D15*
X3269789Y4104088D02*
X3257288Y4116589D01*
X3282998Y4117296D02*
X3269789Y4104088D01*
G54D18*
Y4105502D02*
X3258702Y4116589D01*
X3282291Y4118003D02*
X3269789Y4105502D01*
G54D17*
X3275187Y4124589D02*
X3280391D01*
X3288068Y4137470D02*
X3293272D01*
X3300949Y4150351D02*
X3306153D01*
G54D15*
X3257288Y4116589D02*
X3298342Y4157644D01*
X3324052Y4158351D02*
X3282998Y4117296D01*
G54D17*
X3267187Y4116589D02*
X3303292Y4152694D01*
X3314153Y4158351D02*
X3278048Y4122246D01*
G54D18*
X3302464Y4160351D02*
X3320638D01*
X3305769Y4163656D02*
X3317333D01*
X3309074Y4166961D02*
X3314028D01*
G54D15*
X3298342Y4157644D02*
X3311551Y4170852D01*
X3324052Y4158351D01*
G54D18*
X3299049Y4156937D02*
X3311551Y4169438D01*
X3322638Y4158351D01*
G54D19*
X3297630Y4130510D03*
X3283710Y4144430D03*
G54D14*
X3338260Y4209038D02*
X3388230Y4268590D01*
X3402540Y4256583D01*
X3352570Y4197030D01*
X3338260Y4209038D01*
G54D15*
X3339087Y4208976D02*
X3361961D01*
X3378839Y4256644D02*
X3401713D01*
G54D18*
X3349923Y4201209D02*
X3354118D01*
X3346487Y4204093D02*
X3356538D01*
X3343051Y4206976D02*
X3358957D01*
G54D15*
X3352508Y4197735D02*
X3338965Y4209099D01*
X3362480Y4209619D02*
X3352508Y4197735D01*
G54D18*
X3352385Y4199144D02*
X3340373Y4209222D01*
X3361714Y4210261D02*
X3352385Y4199144D01*
G54D17*
X3354712Y4216976D02*
X3359516D01*
X3363569Y4227532D02*
X3368373D01*
X3372427Y4238088D02*
X3377231D01*
X3381285Y4248644D02*
X3386088D01*
G54D15*
X3338965Y4209099D02*
X3378320Y4256001D01*
X3401836Y4256521D02*
X3362480Y4209619D01*
G54D17*
X3348826Y4209962D02*
X3383682Y4251502D01*
X3391974Y4255658D02*
X3357118Y4214118D01*
G54D18*
X3381843Y4258644D02*
X3397750D01*
X3384263Y4261528D02*
X3394313D01*
X3386682Y4264411D02*
X3390877D01*
G54D15*
X3378320Y4256001D02*
X3388292Y4267885D01*
X3401836Y4256521D01*
G54D18*
X3379086Y4255359D02*
X3388415Y4266477D01*
X3400427Y4256398D01*
G54D19*
X3377940Y4226480D03*
X3362860Y4239140D03*
G54D14*
X2908364Y3714013D02*
X2923666Y3724728D01*
X2968256Y3661047D01*
X2952954Y3650332D01*
X2908364Y3714013D01*
G54D15*
X2909384Y3714136D02*
X2930491D01*
X2946129Y3660924D02*
X2967236D01*
G54D17*
X2949092Y3668924D02*
X2953584D01*
X2940407Y3681328D02*
X2944899D01*
X2931721Y3693732D02*
X2936214D01*
X2923036Y3706136D02*
X2927528D01*
G54D15*
X2945747Y3661498D02*
X2909061Y3713890D01*
X2930874Y3713562D02*
X2967560Y3661170D01*
G54D17*
X2951481Y3665513D02*
X2918810Y3712171D01*
X2925140Y3709547D02*
X2957810Y3662889D01*
G54D18*
X2914011Y3716136D02*
X2927851D01*
X2919215Y3719780D02*
X2925299D01*
G54D15*
X2909061Y3713890D02*
X2923543Y3724031D01*
X2930874Y3713562D01*
G54D18*
X2910453Y3713645D02*
X2923298Y3722638D01*
X2930055Y3712989D01*
X2951321Y3655280D02*
X2957405D01*
X2948769Y3658924D02*
X2962609D01*
G54D15*
X2953077Y3651029D02*
X2945747Y3661498D01*
X2967560Y3661170D02*
X2953077Y3651029D01*
G54D18*
X2953323Y3652422D02*
X2946566Y3662071D01*
X2966167Y3661415D02*
X2953323Y3652422D01*
G54D19*
X2946370Y3693170D03*
X2930250Y3681890D03*
G54D29*
X2568620Y4155050D02*
X2573740D01*
X2568620Y4229860D02*
X2573740D01*
G54D28*
X2538700Y3999540D02*
X2641060D01*
X2538700Y3881430D02*
X2641060D01*
G54D34*
X3021420Y4173830D02*
Y4231470D01*
X3071420Y4173830D02*
Y4231470D01*
X3121420Y4173830D02*
Y4231470D01*
X3171420Y4173830D02*
Y4231470D01*
X3021420Y4391860D02*
Y4449500D01*
X3071420Y4391860D02*
Y4449500D01*
X3121420Y4391860D02*
Y4449500D01*
X3171420Y4391860D02*
Y4449500D01*
G54D35*
X3080675Y4311670D02*
X3112165D01*
G54D36*
X3137525Y3924540D02*
X3140675D01*
X3137525Y4058400D02*
X3140675D01*
G54D37*
X3036420Y3912925D02*
Y3918835D01*
Y4064495D02*
Y4070405D01*
M02*
